<svg xmlns="http://www.w3.org/2000/svg" xmlns:xlink="http://www.w3.org/1999/xlink" viewBox="0 0 517.52 517.51"><defs><style>.cls-1{fill:url(#linear-gradient);}.cls-2{fill:#fff;}</style><linearGradient id="linear-gradient" x1="76.11" y1="411.78" x2="441.4" y2="105.26" gradientUnits="userSpaceOnUse"><stop offset="0" stop-color="#328b31"/><stop offset="1" stop-color="#96cf24"/></linearGradient></defs><g id="Layer_2" data-name="Layer 2"><g id="Layer_1-2" data-name="Layer 1"><g id="Layer_2-2" data-name="Layer 2"><g id="Layer_1-2-2" data-name="Layer 1-2"><ellipse class="cls-1" cx="258.76" cy="258.52" rx="238.51" ry="238.3"/><path class="cls-2" d="M84.15,211.25,211.54,84,339,211.31l-46.87,46.8-80.57-80.49L131,258.07ZM178.89,306l.07.07L306.34,433.37,433.78,306.06l0,0-46.89-46.78-80.58,80.49-80.52-80.45Z"/><path class="cls-2" d="M359.83,497.16c131.18-55.79,192.59-207,137.47-338.3C442,27,290.12-35.08,158.14,20.2A258.87,258.87,0,0,0,0,258.46c-.09,143,115.86,259,259,259.05a257.82,257.82,0,0,0,100.85-20.35ZM259,43.08c119,0,215.8,96.72,215.8,215.6S378,474.28,259,474.28,43.18,377.56,43.18,258.68,140,43.08,259,43.08Z"/></g></g></g></g></svg>