<svg xmlns="http://www.w3.org/2000/svg" viewBox="0 0 214.13 83.27"><defs><style>.cls-1,.cls-5{fill:#6772e5;}.cls-1,.cls-2,.cls-4{fill-rule:evenodd;}.cls-2,.cls-4{fill:#224099;}.cls-2,.cls-3{opacity:0.2;}</style></defs><title>ezdefi explorer</title><g id="Layer_2" data-name="Layer 2"><g id="Layer_1-2" data-name="Layer 1"><path class="cls-1" d="M48.26,2.71c1.89,5-4.08,10.27-6.84,9.25a8.11,8.11,0,0,0-3.28-.85,5.41,5.41,0,0,0-1.65.58L38,13.76s3.48,2.06,5.45,3.28a1.11,1.11,0,0,0,.83.15C50.45,15.82,52.27,5.89,48.26,2.71Z"/><path class="cls-1" d="M56.34,58.49C39.63,55.24,22.51,37.08,32.62,36c6.16-.65,6.61-8.14,15.5-4.12a2,2,0,0,0,2.72-1.09l1.93-4.56c.44-1.27.36-3.22-.57-4.16-1.1-1.11-3.59-.83-4.73-1.51C44.81,19,38,14.65,37.54,14.4s-1.53-2.27-2-2.5a11,11,0,0,0-2.19-.9,6.12,6.12,0,0,0-3.39.25C25.84,12.5,10,17,16.67,0c0,0-15.13,13.26-.73,20.15A.77.77,0,0,1,16,21.48c-4.56,2.8-20.86,13.9-14.59,37.91,4.34,8.16,16.19,14.83,32.13,19.48C39.13,76.73,53.46,64.87,56.34,58.49Z"/><path class="cls-2" d="M32.61,36c6.17-.65,6.61-8.14,15.51-4.12a2,2,0,0,0,2.71-1.09l1.93-4.56c.44-1.27.37-3.22-.56-4.16a5,5,0,0,0-2.72-1c4.7,1.82.45,8.27-1,8.22-1.66-.06-4.5-3.59-7.94-3.65s-5.42,6-10,6.44c-7,.66-7.49-8.65-11.8-4.59S.89,60.83,33.54,78.87c5.61-2.14,19.92-14,22.79-20.38C39.63,55.24,22.51,37.08,32.61,36Z"/><path class="cls-1" d="M48.26,2.71c1.89,5-4.08,10.27-6.84,9.25a8.11,8.11,0,0,0-3.28-.85,5.41,5.41,0,0,0-1.65.58L38,13.76s3.48,2.06,5.45,3.28a1.11,1.11,0,0,0,.83.15C50.45,15.82,52.27,5.89,48.26,2.71Z"/><path class="cls-1" d="M56.34,58.49C39.63,55.24,22.51,37.08,32.62,36c6.16-.65,6.61-8.14,15.5-4.12a2,2,0,0,0,2.72-1.09l1.93-4.56c.44-1.27.36-3.22-.57-4.16-1.1-1.11-3.59-.83-4.73-1.51C44.81,19,38,14.65,37.54,14.4s-1.53-2.27-2-2.5a11,11,0,0,0-2.19-.9,6.12,6.12,0,0,0-3.39.25C25.84,12.5,10,17,16.67,0c0,0-15.13,13.26-.73,20.15A.77.77,0,0,1,16,21.48c-4.56,2.8-20.86,13.9-14.59,37.91,4.34,8.16,16.19,14.83,32.13,19.48C39.13,76.73,53.46,64.87,56.34,58.49Z"/><path class="cls-2" d="M32.61,36c6.17-.65,6.61-8.14,15.51-4.12a2,2,0,0,0,2.71-1.09l1.93-4.56c.44-1.27.37-3.22-.56-4.16a5,5,0,0,0-2.72-1c4.7,1.82.45,8.27-1,8.22-1.66-.06-4.5-3.59-7.94-3.65s-5.42,6-10,6.44c-7,.66-7.49-8.65-11.8-4.59S.89,60.83,33.54,78.87c5.61-2.14,19.92-14,22.79-20.38C39.63,55.24,22.51,37.08,32.61,36Z"/><g class="cls-3"><path class="cls-4" d="M56.33,58.49C40.67,55.44,24.66,39.3,31,36.41c-3.44,1.44-7.83,7.23-7.83,16.87,0,10.21,6.63,20.89,10.34,25.59h0c5.34-2,18.64-13,22.33-19.49l.45-.89Z"/></g><path class="cls-5" d="M87.7,47.69H93a11.45,11.45,0,0,1-4.42,6.73,13.35,13.35,0,0,1-8.21,2.42c-4,0-7.12-1.29-9.36-3.89S67.6,46.81,67.6,42.11q0-6.73,3.26-10.52t9.37-3.89q6.31,0,9.79,3.78t3.36,10.84v1.16a1.85,1.85,0,0,1-.1.74H75.07a7.28,7.28,0,0,0,1.58,4.84,5,5,0,0,0,4.11,1.68,6,6,0,0,0,3-.74,1.47,1.47,0,0,0,.58-.37l.57-.57a2.44,2.44,0,0,1,.79-.85A3.16,3.16,0,0,1,87.7,47.69ZM75.07,39.48H85.81a6.77,6.77,0,0,0-1.48-4.21,5.05,5.05,0,0,0-3.89-1.47,5.14,5.14,0,0,0-3.79,1.47A6.06,6.06,0,0,0,75.07,39.48Z"/><path class="cls-5" d="M94.54,56.32V50.74l15-16.63H99a3.55,3.55,0,0,1-2.53-1,3.26,3.26,0,0,1-1.05-2.47V28.33h22.94v6L103.48,50.21h15.37v6.11Z"/><path class="cls-5" d="M120,56.32V23.91a3.77,3.77,0,0,1,3.79-3.79h10.42q8.31,0,12.42,4.42,4.1,4.63,4.1,13.68A24.52,24.52,0,0,1,149.26,47a14.7,14.7,0,0,1-4.42,6.1,14.37,14.37,0,0,1-5,2.53,29.52,29.52,0,0,1-7.68.74Zm7.26-6.53h6c3.44,0,6-.91,7.58-2.73s2.31-4.63,2.31-8.84-.73-7-2.21-8.95-3.64-2.84-6.73-2.84h-7Z"/><path class="cls-5" d="M171.67,47.69h5.26a11.5,11.5,0,0,1-4.42,6.73,13.35,13.35,0,0,1-8.21,2.42q-6,0-9.36-3.89t-3.37-10.84q0-6.73,3.26-10.52t9.37-3.89q6.31,0,9.78,3.78t3.37,10.84v1.16a1.85,1.85,0,0,1-.1.74H159a7.28,7.28,0,0,0,1.58,4.84,5,5,0,0,0,4.1,1.68,6,6,0,0,0,3.06-.74,1.47,1.47,0,0,0,.58-.37l.57-.57a2.44,2.44,0,0,1,.79-.85A3.16,3.16,0,0,1,171.67,47.69ZM159,39.48h10.74a6.9,6.9,0,0,0-1.48-4.21,5.05,5.05,0,0,0-3.89-1.47,5.12,5.12,0,0,0-3.79,1.47A6.06,6.06,0,0,0,159,39.48Z"/><path class="cls-5" d="M178.51,56.32V23.91a3.76,3.76,0,0,1,3.79-3.79h22.52v6.21H185.87v7.78H200v2.42a3.76,3.76,0,0,1-3.78,3.79H185.87v16Z"/><path class="cls-5" d="M206.71,20.12h3.79a3.58,3.58,0,0,1,3.57,3.58v2.21h-7.36Zm0,8.21h3.79a3.59,3.59,0,0,1,3.57,3.57V56.32h-7.36Z"/><path class="cls-5" d="M140.45,62c.25,0,.36.11.36.33v1.8c0,.22-.11.33-.36.33h-8.14v4.93h7.44a.29.29,0,0,1,.33.33V71.5a.29.29,0,0,1-.33.33h-7.44v4.58h8.14c.25,0,.36.1.36.33v1.8c0,.22-.11.33-.36.33H129.8a.29.29,0,0,1-.33-.33V62.37a.29.29,0,0,1,.33-.33Z"/><path class="cls-5" d="M153.13,66.7c.26,0,.32.2.17.4l-3.78,5.37,4.22,6c.16.25.07.4-.2.4H151.1a.4.4,0,0,1-.33-.2l-2.86-4.13-2.86,4.13a.4.4,0,0,1-.33.2h-2.44c-.27,0-.33-.15-.18-.4l4.2-6-3.78-5.37c-.15-.2-.09-.4.18-.4h2.44a.44.44,0,0,1,.37.2l2.4,3.48,2.4-3.48a.47.47,0,0,1,.37-.2Z"/><path class="cls-5" d="M164.85,67.82c.73.82,1.08,2.42,1.08,4.87s-.33,4.18-1,5-2,1.26-4,1.26a24.72,24.72,0,0,1-2.8-.13v4.07c0,.24-.11.35-.33.35h-2c-.22,0-.33-.11-.33-.35V67.43a.42.42,0,0,1,.42-.44,28.18,28.18,0,0,1,4.68-.4C162.69,66.59,164.15,67,164.85,67.82Zm-6.78,1.08v7.61a19.92,19.92,0,0,0,2.38.14c1.21,0,2-.24,2.31-.73a6.39,6.39,0,0,0,.51-3.15,6.81,6.81,0,0,0-.47-3.12c-.3-.51-1.05-.75-2.22-.75Z"/><path class="cls-5" d="M170.72,62a.29.29,0,0,1,.33.33V78.54a.29.29,0,0,1-.33.33h-2a.29.29,0,0,1-.33-.33V62.37a.29.29,0,0,1,.33-.33Z"/><path class="cls-5" d="M183.18,77.77c-.69.81-2.14,1.21-4.32,1.21s-3.63-.4-4.31-1.21-1-2.49-1-5,.35-4.16,1-5,2.14-1.23,4.31-1.23,3.63.42,4.32,1.23,1,2.47,1,5S183.88,77,183.18,77.77Zm-4.32-8.87c-1.14,0-1.87.24-2.2.75a6.57,6.57,0,0,0-.48,3.15,6.52,6.52,0,0,0,.48,3.14c.33.49,1.06.73,2.2.73s1.87-.24,2.2-.73a6.49,6.49,0,0,0,.49-3.14,6.54,6.54,0,0,0-.49-3.15C180.73,69.14,180,68.9,178.86,68.9Z"/><path class="cls-5" d="M193.05,66.83c.25.07.36.2.36.4v1.34c0,.24-.14.35-.38.33h-2c-1.34,0-1.72.22-1.72,1.19v8.45a.29.29,0,0,1-.33.33h-2a.29.29,0,0,1-.33-.33V69.41a2.36,2.36,0,0,1,1.28-2.4,5.51,5.51,0,0,1,2.44-.42A11,11,0,0,1,193.05,66.83Z"/><path class="cls-5" d="M204.1,67.8c.81,1,1,2.27,1.05,4.75v.67c0,.43-.15.59-.74.59h-7a3.63,3.63,0,0,0,.57,2.31,3.1,3.1,0,0,0,2.16.55h3.76a.29.29,0,0,1,.33.33v1.36a.37.37,0,0,1-.31.38A28.57,28.57,0,0,1,200,79c-2.14,0-3.55-.4-4.23-1.21s-1-2.49-1-5,.33-4.16,1-5,2.11-1.23,4.25-1.23S203.31,66.86,204.1,67.8ZM198,69.52a4,4,0,0,0-.53,2.37h5a4.07,4.07,0,0,0-.51-2.37,2.37,2.37,0,0,0-2-.62A2.54,2.54,0,0,0,198,69.52Z"/><path class="cls-5" d="M213.78,66.83c.24.07.35.2.35.4v1.34c0,.24-.13.35-.37.33h-2c-1.34,0-1.71.22-1.71,1.19v8.45a.29.29,0,0,1-.33.33h-2a.29.29,0,0,1-.33-.33V69.41a2.38,2.38,0,0,1,1.28-2.4,5.53,5.53,0,0,1,2.44-.42A11.06,11.06,0,0,1,213.78,66.83Z"/></g></g></svg>