<svg xmlns="http://www.w3.org/2000/svg" viewBox="0 0 389.17 151.36"><defs><style>.cls-1,.cls-5{fill:#6772e5;}.cls-1,.cls-2,.cls-4{fill-rule:evenodd;}.cls-2,.cls-4{fill:#224099;}.cls-2,.cls-3{opacity:0.2;}</style></defs><title>ezdefi swap</title><g id="Layer_2" data-name="Layer 2"><g id="Layer_1-2" data-name="Layer 1"><path class="cls-1" d="M87.72,4.93c3.45,9.16-7.41,18.67-12.43,16.81-2.07-.77-4.15-1.72-6-1.54a10.17,10.17,0,0,0-3,1.05L69.15,25s6.32,3.74,9.91,6a2,2,0,0,0,1.51.28C91.71,28.75,95,10.7,87.72,4.93Z"/><path class="cls-1" d="M102.4,106.32C72,100.41,40.92,67.4,59.29,65.46c11.21-1.19,12-14.8,28.19-7.49a3.68,3.68,0,0,0,4.93-2l3.51-8.28c.8-2.32.66-5.85-1-7.56-2-2-6.54-1.51-8.61-2.75-4.84-2.88-17.2-10.75-18-11.21s-2.79-4.14-3.6-4.55a19.19,19.19,0,0,0-4-1.63,10.93,10.93,0,0,0-6.15.46C47,22.72,18.19,31,30.29,0c0,0-27.5,24.1-1.32,36.64a1.39,1.39,0,0,1,.14,2.41C20.81,44.13-8.82,64.31,2.58,108c7.9,14.85,29.44,27,58.4,35.41C71.14,139.48,97.18,117.91,102.4,106.32Z"/><path class="cls-2" d="M59.28,65.46c11.21-1.19,12-14.8,28.19-7.49a3.68,3.68,0,0,0,4.93-2l3.51-8.28c.8-2.32.66-5.85-1-7.56C93.79,39,91.93,38.68,90,38.36c8.53,3.3.8,15-1.75,14.93-3-.11-8.18-6.52-14.44-6.63S63.91,57.6,55.56,58.37C42.78,59.57,42,42.64,34.11,50S1.61,110.57,61,143.36c10.2-3.89,36.2-25.45,41.42-37C72,100.41,40.91,67.4,59.28,65.46Z"/><path class="cls-1" d="M87.72,4.93c3.45,9.16-7.41,18.67-12.43,16.81-2.07-.77-4.15-1.72-6-1.54a10.17,10.17,0,0,0-3,1.05L69.15,25s6.32,3.74,9.91,6a2,2,0,0,0,1.51.28C91.71,28.75,95,10.7,87.72,4.93Z"/><path class="cls-1" d="M102.4,106.32C72,100.41,40.92,67.4,59.29,65.46c11.21-1.19,12-14.8,28.19-7.49a3.68,3.68,0,0,0,4.93-2l3.51-8.28c.8-2.32.66-5.85-1-7.56-2-2-6.54-1.51-8.61-2.75-4.84-2.88-17.2-10.75-18-11.21s-2.79-4.14-3.6-4.55a19.19,19.19,0,0,0-4-1.63,10.93,10.93,0,0,0-6.15.46C47,22.72,18.19,31,30.29,0c0,0-27.5,24.1-1.32,36.64a1.39,1.39,0,0,1,.14,2.41C20.81,44.13-8.82,64.31,2.58,108c7.9,14.85,29.44,27,58.4,35.41C71.14,139.48,97.18,117.91,102.4,106.32Z"/><path class="cls-2" d="M59.28,65.46c11.21-1.19,12-14.8,28.19-7.49a3.68,3.68,0,0,0,4.93-2l3.51-8.28c.8-2.32.66-5.85-1-7.56C93.79,39,91.93,38.68,90,38.36c8.53,3.3.8,15-1.75,14.93-3-.11-8.18-6.52-14.44-6.63S63.91,57.6,55.56,58.37C42.78,59.57,42,42.64,34.11,50S1.61,110.57,61,143.36c10.2-3.89,36.2-25.45,41.42-37C72,100.41,40.91,67.4,59.28,65.46Z"/><g class="cls-3"><path class="cls-4" d="M102.39,106.31c-28.46-5.54-57.57-34.88-46-40.13C50.15,68.8,42.17,79.32,42.17,96.85c0,18.56,12,38,18.8,46.51h0c9.7-3.7,33.89-23.55,40.59-35.43.54-1,.82-1.61.82-1.61Z"/></g><path class="cls-5" d="M160.35,87h9.09a19.83,19.83,0,0,1-7.64,11.63q-5.64,4.19-14.18,4.19-10.37,0-16.18-6.73-5.82-6.56-5.82-18.73,0-11.64,5.63-18.18,5.82-6.74,16.19-6.73,10.91,0,16.91,6.55,5.81,6.72,5.82,18.72v2A3.13,3.13,0,0,1,170,81H138.53c.12,3.76,1,6.54,2.72,8.36s3.94,2.91,7.1,2.91A10.26,10.26,0,0,0,153.62,91a2.59,2.59,0,0,0,1-.64l1-1A3.9,3.9,0,0,1,157,87.94,5.41,5.41,0,0,1,160.35,87ZM136.46,72H156q-.39-5.18-2.68-7.65a9.18,9.18,0,0,0-7.08-2.68,9.31,9.31,0,0,0-6.89,2.68Q136.66,67.05,136.46,72Z"/><path class="cls-5" d="M171.17,102v-9.8l28-30.2H179.88a6.51,6.51,0,0,1-4.59-1.84C174,59,173.17,55.7,173.17,55.7V51h42V62L188,91h28.17v11Z"/><path class="cls-5" d="M218.17,102V42.93a6.86,6.86,0,0,1,6.9-6.9h19q15.15,0,22.64,8,7.47,8.45,7.48,25A44.71,44.71,0,0,1,271.5,85a26.72,26.72,0,0,1-8.05,11.13,26.36,26.36,0,0,1-9,4.6q-4.6,1.35-14,1.35Zm13-12H242q9.27,0,13.62-4.92,4.15-4.55,4.16-15.89,0-11-4-16.09Q252,48,243.65,48H231.17Z"/><path class="cls-5" d="M312.35,87h9.09a19.83,19.83,0,0,1-7.64,11.63q-5.64,4.19-14.18,4.19-10.37,0-16.18-6.73-5.82-6.56-5.82-18.73,0-11.64,5.63-18.18,5.82-6.74,16.19-6.73,10.9,0,16.91,6.55,5.81,6.72,5.82,18.72v2A3.13,3.13,0,0,1,322,81H290.53c.12,3.76,1,6.54,2.72,8.36s3.94,2.91,7.1,2.91A10.26,10.26,0,0,0,305.62,91a2.59,2.59,0,0,0,1-.64l1-1A3.9,3.9,0,0,1,309,87.94,5.41,5.41,0,0,1,312.35,87ZM289.1,72h19.51q-.39-5.18-2.68-7.65a9.18,9.18,0,0,0-7.08-2.68A9.29,9.29,0,0,0,292,64.38Q289.28,67.05,289.1,72Z"/><path class="cls-5" d="M325.17,102V42.93A6.76,6.76,0,0,1,327.12,38a6.35,6.35,0,0,1,4.73-2h40.32V48h-34V62h26v4.29a6.35,6.35,0,0,1-2,4.75,6.91,6.91,0,0,1-4.95,2h-19v29Z"/><path class="cls-5" d="M376.17,36h6.68a5.9,5.9,0,0,1,4.46,2,6.79,6.79,0,0,1,1.86,4.8V47h-13Zm0,15h6.68a6,6,0,0,1,4.46,1.91,6.4,6.4,0,0,1,1.86,4.61V102h-13Z"/><path class="cls-5" d="M306.09,113.25c.44.08.64.28.64.64v2.48c0,.44-.2.68-.6.68h-9.24c-3,0-4.47,1-4.47,3.08v.64c0,1.76.63,2.72,2.67,3.56l8.12,3.24c3.72,1.48,5,3.52,5,7.48v1.24c0,2.88-1.08,4.84-3.2,5.92s-4.4,1.36-7.8,1.36a67.73,67.73,0,0,1-9.83-.72.67.67,0,0,1-.56-.72v-2.4a.56.56,0,0,1,.64-.64h11.15q4.44,0,4.44-3v-.68c0-1.92-.72-2.92-3-3.84l-8.63-3.4c-3.16-1.16-4.24-3.44-4.24-7.44v-.92c0-6,4.44-7.24,10.79-7.24A56.29,56.29,0,0,1,306.09,113.25Z"/><path class="cls-5" d="M341.93,121.25c.44,0,.52.12.47.6l-3.47,17.44c-.37,1.88-.89,3-1.52,3.56a6.13,6.13,0,0,1-3.56.72c-2,0-3.24-.24-3.76-.68s-1-1.64-1.48-3.6l-2.28-10.08-2.28,10.08c-.44,2-.92,3.16-1.48,3.6s-1.8.68-3.76.68a6.13,6.13,0,0,1-3.56-.72c-.6-.52-1.12-1.68-1.52-3.56l-3.48-17.44q-.06-.6.48-.6h4c.32,0,.36.12.48.6l3,16.36c.2,1,.4,1.16.88,1.16s.6-.08.88-1.16l3.8-15.72c.08-.4.28-.6.56-.6h4q.42,0,.6.6l3.8,15.72c.2,1.08.32,1.16.84,1.16s.68-.16.88-1.16l3-16.36c.08-.4.23-.6.47-.6Z"/><path class="cls-5" d="M362.16,127.61v13.92a1.13,1.13,0,0,1-.8,1.16,34.1,34.1,0,0,1-9,.88c-3.08,0-5.24-.44-6.52-1.28s-1.92-2.68-1.92-5.4c0-4.84,2.36-6.36,7.6-6.36h5.8v-2.08c0-2.24-1.32-3.2-4.52-3.2h-6.56c-.48,0-.6-.12-.6-.6v-2.44c0-.48.12-.52.56-.64a35.62,35.62,0,0,1,6.6-.52C359.64,121.05,362.16,123.13,362.16,127.61Zm-4.84,6.4H351.8c-2.2,0-3.08.72-3.08,2.68,0,2.24,1,2.84,4,2.84a19.43,19.43,0,0,0,4.56-.44Z"/><path class="cls-5" d="M384.31,123.29c1.32,1.48,2,4.4,2,8.84s-.6,7.6-1.84,9.16-3.68,2.28-7.36,2.28a45.44,45.44,0,0,1-5.07-.24v7.39c0,.44-.2.64-.6.64h-3.68c-.4,0-.6-.2-.6-.64V122.57c0-.44.24-.72.76-.8a52.38,52.38,0,0,1,8.51-.72C380.39,121.05,383,121.81,384.31,123.29Zm-12.31,2v13.84a36.84,36.84,0,0,0,4.31.24c2.21,0,3.6-.44,4.2-1.32s.92-2.8.92-5.72-.28-4.76-.84-5.68-1.92-1.36-4-1.36Z"/></g></g></svg>