<svg xmlns="http://www.w3.org/2000/svg" viewBox="0 0 87.34 122.28"><defs><style>.cls-1{fill:#6772e5;}.cls-1,.cls-2,.cls-4{fill-rule:evenodd;}.cls-2,.cls-4{fill:#224099;}.cls-2,.cls-3{opacity:0.2;}</style></defs><title>icon</title><g id="Layer_2" data-name="Layer 2"><g id="Layer_1-2" data-name="Layer 1"><path class="cls-1" d="M74.82,4.2c2.94,7.82-6.33,15.93-10.6,14.34-1.77-.66-3.55-1.46-5.08-1.31a8.59,8.59,0,0,0-2.57.89L59,21.33s5.39,3.19,8.45,5.08a1.74,1.74,0,0,0,1.29.24C78.22,24.52,81,9.13,74.82,4.2Z"/><path class="cls-1" d="M87.34,90.68c-25.9-5-52.44-33.19-36.77-34.85,9.56-1,10.25-12.62,24-6.39a3.14,3.14,0,0,0,4.21-1.69l3-7.06c.68-2,.57-5-.87-6.46-1.71-1.72-5.58-1.28-7.35-2.34-4.12-2.45-14.67-9.17-15.39-9.56s-2.38-3.53-3.07-3.88a15.64,15.64,0,0,0-3.4-1.39,9.4,9.4,0,0,0-5.25.39c-6.41,1.93-31,9-20.64-17.45,0,0-23.46,20.56-1.13,31.25a1.18,1.18,0,0,1,.12,2C17.75,37.64-7.52,54.85,2.2,92.07c6.74,12.66,25.11,23,49.81,30.21C60.67,119,82.88,100.57,87.34,90.68Z"/><path class="cls-2" d="M50.56,55.83c9.56-1,10.25-12.62,24-6.39a3.13,3.13,0,0,0,4.21-1.69l3-7.06c.68-2,.56-5-.88-6.46-.93-.94-2.52-1.24-4.21-1.51,7.28,2.81.68,12.82-1.49,12.73-2.58-.09-7-5.56-12.32-5.66s-8.4,9.34-15.52,10c-10.9,1-11.6-13.42-18.29-7.12S1.37,94.31,52,122.28c8.71-3.32,30.88-21.71,35.33-31.6C61.44,85.64,34.89,57.49,50.56,55.83Z"/><path class="cls-1" d="M74.82,4.2c2.94,7.82-6.33,15.93-10.6,14.34-1.77-.66-3.55-1.46-5.08-1.31a8.59,8.59,0,0,0-2.57.89L59,21.33s5.39,3.19,8.45,5.08a1.74,1.74,0,0,0,1.29.24C78.22,24.52,81,9.13,74.82,4.2Z"/><path class="cls-1" d="M87.34,90.68c-25.9-5-52.44-33.19-36.77-34.85,9.56-1,10.25-12.62,24-6.39a3.14,3.14,0,0,0,4.21-1.69l3-7.06c.68-2,.57-5-.87-6.46-1.71-1.72-5.58-1.28-7.35-2.34-4.12-2.45-14.67-9.17-15.39-9.56s-2.38-3.53-3.07-3.88a15.64,15.64,0,0,0-3.4-1.39,9.4,9.4,0,0,0-5.25.39c-6.41,1.93-31,9-20.64-17.45,0,0-23.46,20.56-1.13,31.25a1.18,1.18,0,0,1,.12,2C17.75,37.64-7.52,54.85,2.2,92.07c6.74,12.66,25.11,23,49.81,30.21C60.67,119,82.88,100.57,87.34,90.68Z"/><path class="cls-2" d="M50.56,55.83c9.56-1,10.25-12.62,24-6.39a3.13,3.13,0,0,0,4.21-1.69l3-7.06c.68-2,.56-5-.88-6.46-.93-.94-2.52-1.24-4.21-1.51,7.28,2.81.68,12.82-1.49,12.73-2.58-.09-7-5.56-12.32-5.66s-8.4,9.34-15.52,10c-10.9,1-11.6-13.42-18.29-7.12S1.37,94.31,52,122.28c8.71-3.32,30.88-21.71,35.33-31.6C61.44,85.64,34.89,57.49,50.56,55.83Z"/><g class="cls-3"><path class="cls-4" d="M87.33,90.68C63.06,86,38.23,60.93,48.11,56.44,42.77,58.68,36,67.66,36,82.61,36,98.44,46.24,115,52,122.27h0c8.28-3.16,28.91-20.09,34.62-30.22.46-.88.7-1.38.7-1.38Z"/></g></g></g></svg>