<svg xmlns="http://www.w3.org/2000/svg" viewBox="0 0 76.4 106.97"><defs><style>.cls-1{fill:#fff;}.cls-1,.cls-2,.cls-3{fill-rule:evenodd;}.cls-2{fill:#d0d2d3;}.cls-3{fill:#bbbdbf;}</style></defs><title>icon w</title><g id="Layer_2" data-name="Layer 2"><g id="Layer_1-2" data-name="Layer 1"><path class="cls-1" d="M65.45,3.68c2.57,6.84-5.53,13.93-9.27,12.54-1.55-.58-3.1-1.28-4.45-1.15a7.45,7.45,0,0,0-2.25.78l2.11,2.81s4.72,2.79,7.4,4.45a1.53,1.53,0,0,0,1.12.21C68.42,21.45,70.89,8,65.45,3.68Z"/><path class="cls-1" d="M76.4,79.32c-22.65-4.41-45.87-29-32.16-30.48,8.36-.89,9-11,21-5.59A2.75,2.75,0,0,0,69,41.77l2.62-6.18c.59-1.73.49-4.37-.77-5.64-1.49-1.52-4.88-1.13-6.42-2.05-3.61-2.15-12.84-8-13.46-8.37s-2.09-3.09-2.69-3.39a14.1,14.1,0,0,0-3-1.22,8.25,8.25,0,0,0-4.59.34C35.05,17,13.57,23.1,22.6,0c0,0-20.52,18-1,27.33a1,1,0,0,1,.11,1.8C15.53,32.92-6.58,48,1.92,80.54c5.9,11.08,22,20.12,43.58,26.43C53.08,104.07,72.51,88,76.4,79.32Z"/><path class="cls-2" d="M44.23,48.84c8.36-.89,9-11,21-5.59a2.75,2.75,0,0,0,3.68-1.48l2.62-6.18c.6-1.73.49-4.37-.77-5.64-.81-.83-2.2-1.09-3.68-1.33,6.37,2.46.6,11.21-1.3,11.14-2.26-.08-6.11-4.87-10.77-4.95S47.68,43,41.45,43.55c-9.53.89-10.14-11.74-16-6.22S1.2,82.5,45.49,107c7.61-2.91,27-19,30.91-27.65C53.74,74.91,30.52,50.29,44.23,48.84Z"/><path class="cls-3" d="M76.39,79.32c-21.23-4.14-42.95-26-34.3-29.95-4.68,2-10.63,9.81-10.63,22.89,0,13.85,9,28.34,14,34.7h0c7.24-2.77,25.28-17.58,30.28-26.44.4-.76.62-1.21.62-1.21Z"/></g></g></svg>