<svg xmlns="http://www.w3.org/2000/svg" viewBox="0 0 331.9 122.28"><defs><style>.cls-1,.cls-5{fill:#6772e5;}.cls-1,.cls-2,.cls-4{fill-rule:evenodd;}.cls-2,.cls-4{fill:#224099;}.cls-2,.cls-3{opacity:0.2;}</style></defs><title>logo ezdefi</title><g id="Layer_2" data-name="Layer 2"><g id="Layer_1-2" data-name="Layer 1"><path class="cls-1" d="M74.82,4.2c2.94,7.82-6.33,15.93-10.6,14.34-1.77-.66-3.55-1.46-5.08-1.31a8.59,8.59,0,0,0-2.57.89L59,21.33s5.39,3.19,8.45,5.08a1.74,1.74,0,0,0,1.29.24C78.22,24.52,81,9.13,74.82,4.2Z"/><path class="cls-1" d="M87.34,90.68c-25.9-5-52.44-33.19-36.77-34.85,9.56-1,10.25-12.62,24-6.39a3.14,3.14,0,0,0,4.21-1.69l3-7.06c.68-2,.57-5-.87-6.46-1.71-1.72-5.58-1.28-7.35-2.34-4.12-2.45-14.67-9.17-15.39-9.56s-2.38-3.53-3.07-3.88a15.64,15.64,0,0,0-3.4-1.39,9.4,9.4,0,0,0-5.25.39c-6.41,1.93-31,9-20.64-17.45,0,0-23.46,20.56-1.13,31.25a1.18,1.18,0,0,1,.12,2C17.75,37.64-7.52,54.85,2.2,92.07c6.74,12.66,25.11,23,49.81,30.21C60.67,119,82.88,100.57,87.34,90.68Z"/><path class="cls-2" d="M50.56,55.83c9.56-1,10.25-12.62,24-6.39a3.13,3.13,0,0,0,4.21-1.69l3-7.06c.68-2,.56-5-.88-6.46-.93-.94-2.52-1.24-4.21-1.51,7.28,2.81.68,12.82-1.49,12.73-2.58-.09-7-5.56-12.32-5.66s-8.4,9.34-15.52,10c-10.9,1-11.6-13.42-18.29-7.12S1.37,94.31,52,122.28c8.71-3.32,30.88-21.71,35.33-31.6C61.44,85.64,34.89,57.49,50.56,55.83Z"/><path class="cls-1" d="M74.82,4.2c2.94,7.82-6.33,15.93-10.6,14.34-1.77-.66-3.55-1.46-5.08-1.31a8.59,8.59,0,0,0-2.57.89L59,21.33s5.39,3.19,8.45,5.08a1.74,1.74,0,0,0,1.29.24C78.22,24.52,81,9.13,74.82,4.2Z"/><path class="cls-1" d="M87.34,90.68c-25.9-5-52.44-33.19-36.77-34.85,9.56-1,10.25-12.62,24-6.39a3.14,3.14,0,0,0,4.21-1.69l3-7.06c.68-2,.57-5-.87-6.46-1.71-1.72-5.58-1.28-7.35-2.34-4.12-2.45-14.67-9.17-15.39-9.56s-2.38-3.53-3.07-3.88a15.64,15.64,0,0,0-3.4-1.39,9.4,9.4,0,0,0-5.25.39c-6.41,1.93-31,9-20.64-17.45,0,0-23.46,20.56-1.13,31.25a1.18,1.18,0,0,1,.12,2C17.75,37.64-7.52,54.85,2.2,92.07c6.74,12.66,25.11,23,49.81,30.21C60.67,119,82.88,100.57,87.34,90.68Z"/><path class="cls-2" d="M50.56,55.83c9.56-1,10.25-12.62,24-6.39a3.13,3.13,0,0,0,4.21-1.69l3-7.06c.68-2,.56-5-.88-6.46-.93-.94-2.52-1.24-4.21-1.51,7.28,2.81.68,12.82-1.49,12.73-2.58-.09-7-5.56-12.32-5.66s-8.4,9.34-15.52,10c-10.9,1-11.6-13.42-18.29-7.12S1.37,94.31,52,122.28c8.71-3.32,30.88-21.71,35.33-31.6C61.44,85.64,34.89,57.49,50.56,55.83Z"/><g class="cls-3"><path class="cls-4" d="M87.33,90.68C63.06,86,38.23,60.93,48.11,56.44,42.77,58.68,36,67.66,36,82.61,36,98.44,46.24,115,52,122.27h0c8.28-3.16,28.91-20.09,34.62-30.22.46-.88.7-1.38.7-1.38Z"/></g><path class="cls-5" d="M136,91.4h8.16a17.82,17.82,0,0,1-6.86,10.44q-5.06,3.75-12.72,3.75-9.3,0-14.52-6-5.22-5.88-5.22-16.81,0-10.44,5.06-16.31,5.22-6,14.52-6,9.78,0,15.17,5.88,5.22,6,5.22,16.8v1.79a3,3,0,0,1-.16,1.15H116.39q.17,5.06,2.45,7.5,2.11,2.61,6.36,2.61A9.23,9.23,0,0,0,129.93,95a2.29,2.29,0,0,0,.9-.57l.9-.9a3.38,3.38,0,0,1,1.22-1.3A4.82,4.82,0,0,1,136,91.4ZM116.39,78.68H133q-.33-4.41-2.28-6.53a7.86,7.86,0,0,0-6-2.28,8,8,0,0,0-5.87,2.28A9.39,9.39,0,0,0,116.39,78.68Z"/><path class="cls-5" d="M146.57,104.78V96.13L169.9,70.36H153.43a5.5,5.5,0,0,1-3.92-1.55A5.08,5.08,0,0,1,147.88,65V61.38h35.56v9.3l-23,24.64h23.82v9.46Z"/><path class="cls-5" d="M186.05,104.78V54.53a5.86,5.86,0,0,1,5.87-5.87h16.16q12.88,0,19.25,6.85,6.36,7.18,6.36,21.21a37.85,37.85,0,0,1-2.29,13.54,22.67,22.67,0,0,1-6.85,9.46,22.32,22.32,0,0,1-7.66,3.92Q213,104.78,205,104.78Zm11.26-10.12h9.3q8,0,11.74-4.24,3.59-3.92,3.59-13.7,0-9.47-3.42-13.87t-10.44-4.4H197.31Z"/><path class="cls-5" d="M266.15,91.4h8.16a17.81,17.81,0,0,1-6.85,10.44q-5.06,3.75-12.73,3.75-9.3,0-14.52-6Q235,93.68,235,82.75q0-10.44,5.06-16.31,5.22-6,14.52-6,9.8,0,15.17,5.88,5.22,6,5.22,16.8v1.79A2.82,2.82,0,0,1,274.8,86H246.58c.1,3.37.92,5.87,2.44,7.5s3.54,2.61,6.37,2.61A9.28,9.28,0,0,0,260.12,95a2.33,2.33,0,0,0,.89-.57l.9-.9a3.55,3.55,0,0,1,1.22-1.3A4.84,4.84,0,0,1,266.15,91.4ZM246.58,78.68h16.64q-.33-4.41-2.29-6.53a7.82,7.82,0,0,0-6-2.28A8,8,0,0,0,249,72.15,9.34,9.34,0,0,0,246.58,78.68Z"/><path class="cls-5" d="M276.76,104.78V54.53a5.84,5.84,0,0,1,5.87-5.87h34.91v9.62H288.18V70.36H310v3.75A5.86,5.86,0,0,1,304.16,80h-16v24.8Z"/><path class="cls-5" d="M320.48,48.66h5.87a5.57,5.57,0,0,1,5.55,5.55v3.42H320.48Zm0,12.72h5.87a5.57,5.57,0,0,1,5.55,5.55v37.85H320.48Z"/></g></g></svg>