<svg xmlns="http://www.w3.org/2000/svg" viewBox="0 0 389.13 151.56"><defs><style>.cls-1,.cls-5{fill:#6772e5;}.cls-1,.cls-2,.cls-4{fill-rule:evenodd;}.cls-2,.cls-4{fill:#224099;}.cls-2,.cls-3{opacity:0.2;}</style></defs><title>ezdefi bridge_1</title><g id="Layer_2" data-name="Layer 2"><g id="Layer_1-2" data-name="Layer 1"><path class="cls-1" d="M87.72,4.93c3.45,9.16-7.41,18.67-12.43,16.81-2.07-.77-4.15-1.72-6-1.54a10.17,10.17,0,0,0-3,1.05L69.15,25s6.32,3.74,9.91,6a2,2,0,0,0,1.51.28C91.71,28.75,95,10.7,87.72,4.93Z"/><path class="cls-1" d="M102.4,106.32C72,100.41,40.92,67.4,59.29,65.46c11.21-1.19,12-14.8,28.19-7.49a3.68,3.68,0,0,0,4.93-2l3.51-8.28c.8-2.32.66-5.85-1-7.56-2-2-6.54-1.51-8.61-2.75-4.84-2.88-17.2-10.75-18-11.21s-2.79-4.14-3.6-4.55a19.19,19.19,0,0,0-4-1.63,10.93,10.93,0,0,0-6.15.46C47,22.72,18.19,31,30.29,0c0,0-27.5,24.1-1.32,36.64a1.39,1.39,0,0,1,.14,2.41C20.81,44.13-8.82,64.31,2.58,108c7.9,14.85,29.44,27,58.4,35.41C71.14,139.48,97.18,117.91,102.4,106.32Z"/><path class="cls-2" d="M59.28,65.46c11.21-1.19,12-14.8,28.19-7.49a3.68,3.68,0,0,0,4.93-2l3.51-8.28c.8-2.32.66-5.85-1-7.56C93.79,39,91.93,38.68,90,38.36c8.53,3.3.8,15-1.75,14.93-3-.11-8.18-6.52-14.44-6.63S63.91,57.6,55.56,58.37C42.78,59.57,42,42.64,34.11,50S1.61,110.57,61,143.36c10.2-3.89,36.2-25.45,41.42-37C72,100.41,40.91,67.4,59.28,65.46Z"/><path class="cls-1" d="M87.72,4.93c3.45,9.16-7.41,18.67-12.43,16.81-2.07-.77-4.15-1.72-6-1.54a10.17,10.17,0,0,0-3,1.05L69.15,25s6.32,3.74,9.91,6a2,2,0,0,0,1.51.28C91.71,28.75,95,10.7,87.72,4.93Z"/><path class="cls-1" d="M102.4,106.32C72,100.41,40.92,67.4,59.29,65.46c11.21-1.19,12-14.8,28.19-7.49a3.68,3.68,0,0,0,4.93-2l3.51-8.28c.8-2.32.66-5.85-1-7.56-2-2-6.54-1.51-8.61-2.75-4.84-2.88-17.2-10.75-18-11.21s-2.79-4.14-3.6-4.55a19.19,19.19,0,0,0-4-1.63,10.93,10.93,0,0,0-6.15.46C47,22.72,18.19,31,30.29,0c0,0-27.5,24.1-1.32,36.64a1.39,1.39,0,0,1,.14,2.41C20.81,44.13-8.82,64.31,2.58,108c7.9,14.85,29.44,27,58.4,35.41C71.14,139.48,97.18,117.91,102.4,106.32Z"/><path class="cls-2" d="M59.28,65.46c11.21-1.19,12-14.8,28.19-7.49a3.68,3.68,0,0,0,4.93-2l3.51-8.28c.8-2.32.66-5.85-1-7.56C93.79,39,91.93,38.68,90,38.36c8.53,3.3.8,15-1.75,14.93-3-.11-8.18-6.52-14.44-6.63S63.91,57.6,55.56,58.37C42.78,59.57,42,42.64,34.11,50S1.61,110.57,61,143.36c10.2-3.89,36.2-25.45,41.42-37C72,100.41,40.91,67.4,59.28,65.46Z"/><g class="cls-3"><path class="cls-4" d="M102.39,106.31c-28.46-5.54-57.57-34.88-46-40.13C50.15,68.8,42.17,79.32,42.17,96.85c0,18.56,12,38,18.8,46.51h0c9.7-3.7,33.89-23.55,40.59-35.43.54-1,.82-1.61.82-1.61Z"/></g><path class="cls-5" d="M159.42,86.68H169a20.89,20.89,0,0,1-8,12.25q-5.94,4.39-14.92,4.4-10.9,0-17-7.08-6.13-6.89-6.13-19.7,0-12.24,5.93-19.13,6.12-7.08,17-7.08,11.47,0,17.78,6.89,6.12,7.08,6.13,19.7V79a3.19,3.19,0,0,1-.2,1.34H136.46q.19,5.94,2.87,8.8,2.49,3.06,7.46,3.06a10.76,10.76,0,0,0,5.55-1.34,2.61,2.61,0,0,0,1-.67c.32-.31.67-.67,1.05-1a4.25,4.25,0,0,1,1.44-1.53A5.69,5.69,0,0,1,159.42,86.68Zm-23-14.91H156q-.39-5.17-2.68-7.66a9.21,9.21,0,0,0-7.08-2.67,9.35,9.35,0,0,0-6.89,2.67Q136.66,66.8,136.46,71.77Z"/><path class="cls-5" d="M171.85,102.37V92.23L199.2,62H179.88a6.41,6.41,0,0,1-4.59-1.82,6,6,0,0,1-1.91-4.49V51.49h41.7v10.9l-27,28.88H216v11.1Z"/><path class="cls-5" d="M218.14,102.37V43.46A6.86,6.86,0,0,1,225,36.57H244q15.1,0,22.57,8Q274,53,274,69.47a44.71,44.71,0,0,1-2.68,15.88,26.7,26.7,0,0,1-8,11.09,26.2,26.2,0,0,1-9,4.59q-4.59,1.34-14,1.34Zm13.19-11.86h10.91q9.36,0,13.77-5,4.2-4.59,4.21-16.07,0-11.08-4-16.26-3.82-5.16-12.24-5.16H231.33Z"/><path class="cls-5" d="M312.05,86.68h9.56a20.89,20.89,0,0,1-8,12.25q-5.93,4.39-14.92,4.4-10.91,0-17-7.08-6.12-6.89-6.12-19.7,0-12.24,5.93-19.13,6.12-7.08,17-7.08,11.47,0,17.79,6.89,6.12,7.08,6.12,19.7V79a3.41,3.41,0,0,1-.19,1.34H289.1q.18,5.94,2.87,8.8,2.47,3.06,7.46,3.06A10.75,10.75,0,0,0,305,90.89a2.58,2.58,0,0,0,1.06-.67l1.05-1a4.11,4.11,0,0,1,1.43-1.53A5.69,5.69,0,0,1,312.05,86.68ZM289.1,71.77h19.51q-.39-5.17-2.68-7.66a9.21,9.21,0,0,0-7.08-2.67A9.32,9.32,0,0,0,292,64.11Q289.28,66.8,289.1,71.77Z"/><path class="cls-5" d="M324.48,102.37V43.46a6.86,6.86,0,0,1,6.89-6.89H372.3V47.86H337.87V62H363.5v4.4a6.86,6.86,0,0,1-6.88,6.89H337.87v29.07Z"/><path class="cls-5" d="M375.74,36.57h6.89a6.52,6.52,0,0,1,6.5,6.51v4H375.74Zm0,14.92h6.89a6.52,6.52,0,0,1,6.5,6.5v44.38H375.74Z"/><path class="cls-5" d="M288.14,114.45c1.72,1.24,2.56,3.44,2.56,6.6,0,4.16-1.12,6.28-4,6.88v.12c3.48.48,4.72,3,4.72,7.2,0,3.16-.84,5.36-2.48,6.56s-4.28,1.76-7.92,1.76c-4.68,0-8.6-.12-11.8-.36-.48-.05-.6-.12-.6-.56v-29.2c0-.44.12-.52.6-.56,2.84-.2,6.44-.32,10.72-.32C283.74,112.57,286.46,113.21,288.14,114.45Zm-14.32,2.6v9.08h4.52c2.84,0,4.76-.24,5.72-.76s1.48-1.72,1.48-3.68c0-3.64-1.68-4.64-6-4.64Zm0,13v9.08h7.08c3.88,0,5.4-1,5.4-4.32,0-3.68-1.68-4.76-5.32-4.76Z"/><path class="cls-5" d="M307.45,121.49c.44.12.64.36.64.72v2.44c0,.44-.24.64-.68.6h-3.64c-2.44,0-3.12.4-3.12,2.16v15.36a.53.53,0,0,1-.6.6h-3.64a.54.54,0,0,1-.6-.6v-16.6c0-2.24.84-3.72,2.32-4.36a10,10,0,0,1,4.44-.76A19.66,19.66,0,0,1,307.45,121.49Z"/><path class="cls-5" d="M316.57,114.93q0,2.76-2.88,2.76c-1.88,0-2.92-1-2.92-2.76s1-2.76,2.92-2.76S316.57,113.09,316.57,114.93Zm-1.08,6.32a.53.53,0,0,1,.6.6v20.92a.53.53,0,0,1-.6.6h-3.64a.53.53,0,0,1-.6-.6V121.85a.53.53,0,0,1,.6-.6Z"/><path class="cls-5" d="M339.09,112.81a.53.53,0,0,1,.6.6V142a.77.77,0,0,1-.72.84,52.61,52.61,0,0,1-8.56.72c-4.16,0-6.4-.52-8-2.28s-1.88-4.28-1.88-9q0-6.72,1.8-9c1.24-1.52,3.68-2.28,7.36-2.28a44.31,44.31,0,0,1,5.12.24v-7.88a.53.53,0,0,1,.6-.6Zm-4.24,12.44h-4.36q-3.3,0-4.2,1.32c-.6.88-.88,2.8-.88,5.76s.28,4.76.84,5.68,2,1.36,4.12,1.36a33.74,33.74,0,0,0,4.48-.32Z"/><path class="cls-5" d="M362.52,121.77a.72.72,0,0,1,.76.8v19.52c0,3-.24,4.71-1,6.31-1.08,2.28-3.72,3.16-8.48,3.16a46.61,46.61,0,0,1-6.56-.44.61.61,0,0,1-.56-.64v-2.36a.53.53,0,0,1,.6-.6h6.24c2,0,3.28-.28,4-.88s1-1.64,1-3.23v-.2a32.06,32.06,0,0,1-5.12.36c-3.68,0-6.12-.76-7.36-2.32s-1.84-4.6-1.84-9.12.64-7.36,1.92-8.84,4-2.24,8-2.24A44.57,44.57,0,0,1,362.52,121.77Zm-4.08,3.48h-4.6c-2.12,0-3.44.44-4,1.36s-.84,2.8-.84,5.68.28,4.84.88,5.72,2,1.32,4.2,1.32a31.85,31.85,0,0,0,4.36-.24Z"/><path class="cls-5" d="M384.71,123.25c1.48,1.72,1.88,4.12,1.92,8.64v1.2c0,.8-.28,1.08-1.36,1.08H372.6c0,2.12.4,3.52,1,4.2s2,1,3.91,1h6.84a.53.53,0,0,1,.6.6v2.48a.65.65,0,0,1-.56.68,51.09,51.09,0,0,1-7.16.44c-3.87,0-6.43-.72-7.67-2.2s-1.88-4.52-1.88-9,.6-7.56,1.84-9,3.84-2.24,7.71-2.24S383.27,121.53,384.71,123.25Zm-11.15,3.12q-.9,1.08-1,4.32h9.15c0-2.16-.32-3.6-.92-4.32s-1.76-1.12-3.56-1.12S374.15,125.61,373.56,126.37Z"/></g></g></svg>