<svg xmlns="http://www.w3.org/2000/svg" viewBox="0 0 214.07 78.98"><defs><style>.cls-1,.cls-5{fill:#6772e5;}.cls-1,.cls-2,.cls-4{fill-rule:evenodd;}.cls-2,.cls-4{fill:#224099;}.cls-2,.cls-3{opacity:0.2;}</style></defs><title>ezdefi stats</title><g id="Layer_2" data-name="Layer 2"><g id="Layer_1-2" data-name="Layer 1"><path class="cls-1" d="M48.26,2.71c1.89,5-4.08,10.27-6.84,9.25a8.11,8.11,0,0,0-3.28-.85,5.41,5.41,0,0,0-1.65.58L38,13.76s3.48,2.06,5.45,3.28a1.11,1.11,0,0,0,.83.15C50.45,15.82,52.27,5.89,48.26,2.71Z"/><path class="cls-1" d="M56.34,58.49C39.63,55.24,22.51,37.08,32.62,36c6.16-.65,6.61-8.14,15.5-4.12a2,2,0,0,0,2.72-1.09l1.93-4.56c.44-1.27.36-3.22-.57-4.16-1.1-1.11-3.59-.83-4.73-1.51C44.81,19,38,14.65,37.54,14.4s-1.53-2.27-2-2.5a11,11,0,0,0-2.19-.9,6.12,6.12,0,0,0-3.39.25C25.84,12.5,10,17,16.67,0c0,0-15.13,13.26-.73,20.15A.77.77,0,0,1,16,21.48c-4.56,2.8-20.86,13.9-14.59,37.91,4.34,8.16,16.19,14.83,32.13,19.48C39.13,76.73,53.46,64.87,56.34,58.49Z"/><path class="cls-2" d="M32.61,36c6.17-.65,6.61-8.14,15.51-4.12a2,2,0,0,0,2.71-1.09l1.93-4.56c.44-1.27.37-3.22-.56-4.16a5,5,0,0,0-2.72-1c4.7,1.82.45,8.27-1,8.22-1.66-.06-4.5-3.59-7.94-3.65s-5.42,6-10,6.44c-7,.66-7.49-8.65-11.8-4.59S.89,60.83,33.54,78.87c5.61-2.14,19.92-14,22.79-20.38C39.63,55.24,22.51,37.08,32.61,36Z"/><path class="cls-1" d="M48.26,2.71c1.89,5-4.08,10.27-6.84,9.25a8.11,8.11,0,0,0-3.28-.85,5.41,5.41,0,0,0-1.65.58L38,13.76s3.48,2.06,5.45,3.28a1.11,1.11,0,0,0,.83.15C50.45,15.82,52.27,5.89,48.26,2.71Z"/><path class="cls-1" d="M56.34,58.49C39.63,55.24,22.51,37.08,32.62,36c6.16-.65,6.61-8.14,15.5-4.12a2,2,0,0,0,2.72-1.09l1.93-4.56c.44-1.27.36-3.22-.57-4.16-1.1-1.11-3.59-.83-4.73-1.51C44.81,19,38,14.65,37.54,14.4s-1.53-2.27-2-2.5a11,11,0,0,0-2.19-.9,6.12,6.12,0,0,0-3.39.25C25.84,12.5,10,17,16.67,0c0,0-15.13,13.26-.73,20.15A.77.77,0,0,1,16,21.48c-4.56,2.8-20.86,13.9-14.59,37.91,4.34,8.16,16.19,14.83,32.13,19.48C39.13,76.73,53.46,64.87,56.34,58.49Z"/><path class="cls-2" d="M32.61,36c6.17-.65,6.61-8.14,15.51-4.12a2,2,0,0,0,2.71-1.09l1.93-4.56c.44-1.27.37-3.22-.56-4.16a5,5,0,0,0-2.72-1c4.7,1.82.45,8.27-1,8.22-1.66-.06-4.5-3.59-7.94-3.65s-5.42,6-10,6.44c-7,.66-7.49-8.65-11.8-4.59S.89,60.83,33.54,78.87c5.61-2.14,19.92-14,22.79-20.38C39.63,55.24,22.51,37.08,32.61,36Z"/><g class="cls-3"><path class="cls-4" d="M56.33,58.49C40.67,55.44,24.66,39.3,31,36.41c-3.44,1.44-7.83,7.23-7.83,16.87,0,10.21,6.63,20.89,10.34,25.59h0c5.34-2,18.64-13,22.33-19.49l.45-.89Z"/></g><path class="cls-5" d="M87.7,47.69H93a11.45,11.45,0,0,1-4.42,6.73,13.35,13.35,0,0,1-8.21,2.42c-4,0-7.12-1.29-9.36-3.89S67.6,46.81,67.6,42.11q0-6.73,3.26-10.52t9.37-3.89q6.31,0,9.79,3.78t3.36,10.84v1.16a1.85,1.85,0,0,1-.1.74H75.07a7.28,7.28,0,0,0,1.58,4.84,5,5,0,0,0,4.11,1.68,6,6,0,0,0,3-.74,1.47,1.47,0,0,0,.58-.37l.57-.57a2.44,2.44,0,0,1,.79-.85A3.16,3.16,0,0,1,87.7,47.69ZM75.07,39.48H85.81a6.77,6.77,0,0,0-1.48-4.21,5.05,5.05,0,0,0-3.89-1.47,5.14,5.14,0,0,0-3.79,1.47A6.06,6.06,0,0,0,75.07,39.48Z"/><path class="cls-5" d="M94.54,56.32V50.74l15-16.63H99a3.55,3.55,0,0,1-2.53-1,3.26,3.26,0,0,1-1.05-2.47V28.33h22.94v6L103.48,50.21h15.37v6.11Z"/><path class="cls-5" d="M120,56.32V23.91a3.77,3.77,0,0,1,3.79-3.79h10.42q8.31,0,12.42,4.42,4.1,4.63,4.1,13.68A24.52,24.52,0,0,1,149.26,47a14.7,14.7,0,0,1-4.42,6.1,14.37,14.37,0,0,1-5,2.53,29.52,29.52,0,0,1-7.68.74Zm7.26-6.53h6c3.44,0,6-.91,7.58-2.73s2.31-4.63,2.31-8.84-.73-7-2.21-8.95-3.64-2.84-6.73-2.84h-7Z"/><path class="cls-5" d="M171.67,47.69h5.26a11.5,11.5,0,0,1-4.42,6.73,13.35,13.35,0,0,1-8.21,2.42q-6,0-9.36-3.89t-3.37-10.84q0-6.73,3.26-10.52t9.37-3.89q6.31,0,9.78,3.78t3.37,10.84v1.16a1.85,1.85,0,0,1-.1.74H159a7.28,7.28,0,0,0,1.58,4.84,5,5,0,0,0,4.1,1.68,6,6,0,0,0,3.06-.74,1.47,1.47,0,0,0,.58-.37l.57-.57a2.44,2.44,0,0,1,.79-.85A3.16,3.16,0,0,1,171.67,47.69ZM159,39.48h10.74a6.9,6.9,0,0,0-1.48-4.21,5.05,5.05,0,0,0-3.89-1.47,5.12,5.12,0,0,0-3.79,1.47A6.06,6.06,0,0,0,159,39.48Z"/><path class="cls-5" d="M178.51,56.32V23.91a3.76,3.76,0,0,1,3.79-3.79h22.52v6.21H185.87v7.78H200v2.42a3.76,3.76,0,0,1-3.78,3.79H185.87v16Z"/><path class="cls-5" d="M206.71,20.12h3.79a3.58,3.58,0,0,1,3.57,3.58v2.21h-7.36Zm0,8.21h3.79a3.59,3.59,0,0,1,3.57,3.57V56.32h-7.36Z"/><path class="cls-5" d="M173,62.3c.25,0,.36.16.36.35V64c0,.24-.11.37-.33.37H168c-1.65,0-2.46.57-2.46,1.7v.35c0,1,.35,1.49,1.47,2l4.47,1.78a3.78,3.78,0,0,1,2.77,4.11V75a3.31,3.31,0,0,1-1.76,3.26,9.49,9.49,0,0,1-4.29.75,36.48,36.48,0,0,1-5.41-.4.36.36,0,0,1-.31-.39V76.87c0-.24.11-.36.35-.36h6.14c1.63,0,2.44-.55,2.44-1.64v-.38c0-1.06-.39-1.61-1.62-2.11L165,70.51c-1.73-.64-2.33-1.89-2.33-4.09v-.51c0-3.32,2.44-4,5.94-4A31.15,31.15,0,0,1,173,62.3Z"/><path class="cls-5" d="M179.08,63.33c.25-.06.38,0,.38.31v3.08h2.18c.24,0,.35.11.35.33v1.39a.3.3,0,0,1-.35.35h-2.18V75.5c0,1,.28,1.17,1.36,1.17h1c.24,0,.37.11.37.31v1.45a.37.37,0,0,1-.33.4,8.26,8.26,0,0,1-1.56.15,6.71,6.71,0,0,1-2-.18c-1-.26-1.45-.9-1.54-2.51v-7.5h-1.25a.3.3,0,0,1-.35-.35V67.05c0-.22.11-.33.35-.33h1.25V64.19a.34.34,0,0,1,.31-.35Z"/><path class="cls-5" d="M193.38,70.2v7.66a.63.63,0,0,1-.44.64A18.77,18.77,0,0,1,188,79a6.82,6.82,0,0,1-3.58-.7c-.71-.49-1.06-1.48-1.06-3,0-2.66,1.3-3.49,4.18-3.49h3.19V70.66c0-1.23-.72-1.76-2.49-1.76h-3.6c-.27,0-.33-.06-.33-.33V67.23c0-.26.06-.29.31-.35a19.29,19.29,0,0,1,3.62-.29C192,66.59,193.38,67.74,193.38,70.2Zm-2.66,3.52h-3c-1.21,0-1.7.4-1.7,1.48,0,1.23.55,1.56,2.22,1.56a10.27,10.27,0,0,0,2.51-.25Z"/><path class="cls-5" d="M199.13,63.33c.24-.06.37,0,.37.31v3.08h2.18c.24,0,.35.11.35.33v1.39a.3.3,0,0,1-.35.35H199.5V75.5c0,1,.29,1.17,1.36,1.17h1c.24,0,.38.11.38.31v1.45a.37.37,0,0,1-.33.4,8.36,8.36,0,0,1-1.57.15,6.61,6.61,0,0,1-1.95-.18c-1-.26-1.46-.9-1.54-2.51v-7.5h-1.26a.3.3,0,0,1-.35-.35V67.05c0-.22.11-.33.35-.33h1.26V64.19a.34.34,0,0,1,.3-.35Z"/><path class="cls-5" d="M211.91,66.83c.22,0,.33.16.33.36v1.29c0,.22-.11.33-.35.33h-4c-1,0-1.45.33-1.45,1v.27c0,.55.39,1,1.21,1.29l2.88,1.06a3,3,0,0,1,2.24,3.21v.29c0,2.38-1.45,3.08-4.55,3.08-1.41,0-2.84-.07-4.29-.2q-.33,0-.33-.33V77.09c0-.25.11-.35.35-.35h4.27c1.49,0,1.93-.18,1.93-.95v-.22c0-.55-.28-.9-1.25-1.26l-2.91-1.1a3.11,3.11,0,0,1-2.2-3.23v-.44c0-2.22,1.68-3,4.74-3A24,24,0,0,1,211.91,66.83Z"/></g></g></svg>