<svg xmlns="http://www.w3.org/2000/svg" viewBox="0 0 452.17 452.17"><g id="Layer_2" data-name="Layer 2"><g id="Layer_1-2" data-name="Layer 1"><path d="M0,225.9c.07,125,101.41,226.35,226.34,226.27A226.19,226.19,0,0,0,434.52,314c48.31-115.32-5.94-248-121.15-296.35C198.6-30.49,66.53,23.18,17.78,137.78A225.1,225.1,0,0,0,0,225.9Zm414.53,0c0,104-84.51,188.54-188.38,188.54S37.77,329.86,37.77,225.9,122.28,37.35,226.15,37.35,414.53,121.93,414.53,225.9ZM148.05,309.28l-86.9-83.19,87.18-83.46v43H231.5L148.56,266.5h-.23v.22l-.28.28Zm155.79.26v-43H220.91l82.93-80.83v-43L391,226.09Z"/></g></g></svg>