<svg xmlns="http://www.w3.org/2000/svg" viewBox="0 0 1069.74 352.67"><g id="Layer_2" data-name="Layer 2"><g id="Layer_1-2" data-name="Layer 1"><path d="M458.46,216.91q9.42,9.66,23.91,9.66,14.25,0,23.06-9.54t8.82-25.72V91.8h44.2v99.51q0,22-9.3,38.52a62.9,62.9,0,0,1-26.57,25.48q-17.27,8.94-40.45,8.94t-40.7-8.94a64.1,64.1,0,0,1-27.05-25.48q-9.54-16.54-9.54-38.52V91.8H449v99.51Q449,207.26,458.46,216.91Z"/><path d="M676.43,129.72q-15.34-5.07-25.72-5.07-8.22,0-12.92,3a9.82,9.82,0,0,0-4.71,8.81,12,12,0,0,0,4.1,9.3,31.37,31.37,0,0,0,10.15,6q6,2.3,17.87,5.92a232.81,232.81,0,0,1,29.1,10.14A51,51,0,0,1,714,183.46q8.21,10.5,8.21,27.41t-8.94,28.86q-8.94,12-24.51,18a95.33,95.33,0,0,1-34.66,6,125.35,125.35,0,0,1-41.91-7.37,114.57,114.57,0,0,1-36.1-20.17l17.15-34.54a106.51,106.51,0,0,0,30.31,18.6q17.51,7.25,31,7.25,9.9,0,15.58-3.63a11.81,11.81,0,0,0,5.68-10.62,12.56,12.56,0,0,0-4.23-9.66A31,31,0,0,0,661,197.47q-6.4-2.29-18-5.44a220.38,220.38,0,0,1-28.74-9.78,50.81,50.81,0,0,1-19.44-15q-8.1-10-8.1-26.69,0-15.69,8.34-27.53t23.67-18.24q15.33-6.39,35.62-6.4a129,129,0,0,1,36.23,5.2A119.53,119.53,0,0,1,722,107.5l-16.67,35.26A148.81,148.81,0,0,0,676.43,129.72Z"/><path d="M864.57,102.43a77.82,77.82,0,0,1,31.76,29.83q11.35,19.2,11.35,44.07t-11.47,44.2a77.63,77.63,0,0,1-32.36,29.95q-20.9,10.64-48,10.63H744.66V91.8H817.6Q844.17,91.8,864.57,102.43Zm-23.06,116.9A41,41,0,0,0,857,202.18a55.88,55.88,0,0,0,5.56-25.36q0-14.49-5.92-25.6A43.24,43.24,0,0,0,840.3,134a45.51,45.51,0,0,0-23.67-6.16H788.85v97.57H818.8A42.8,42.8,0,0,0,841.51,219.33Z"/><path d="M922.9,91.8h145.39v29L978.93,225.61h90.81v35.5h-150V232.37l89.36-105.06H922.9Z"/><path d="M0,176.19c.06,97.52,79.09,176.54,176.53,176.48A176.42,176.42,0,0,0,338.9,244.91C376.58,155,334.27,51.48,244.41,13.78,154.9-23.78,51.89,18.08,13.87,107.46A175.6,175.6,0,0,0,0,176.19Zm323.31,0c0,81.08-65.91,147.05-146.93,147.05s-146.92-66-146.92-147S95.37,29.13,176.38,29.13s146.93,66,146.93,147.06Zm-207.84,65L47.69,176.33l68-65.09v33.57h64.87l-64.69,63h-.18V208l-.22.21Zm121.51.21V207.85H172.3l64.68-63V111.24l68,65.09Z"/></g></g></svg>