<svg xmlns="http://www.w3.org/2000/svg" xmlns:xlink="http://www.w3.org/1999/xlink" viewBox="0 0 532.74 711.43"><defs><style>.cls-1{fill:url(#New_Gradient_Swatch_1);}.cls-2{fill:url(#New_Gradient_Swatch_1-5);}</style><linearGradient id="New_Gradient_Swatch_1" y1="640.99" x2="532.74" y2="640.99" gradientUnits="userSpaceOnUse"><stop offset="0" stop-color="#328b31"/><stop offset="1" stop-color="#96cf24"/></linearGradient><linearGradient id="New_Gradient_Swatch_1-5" x1="78.07" y1="454.62" x2="454.6" y2="78.09" xlink:href="#New_Gradient_Swatch_1"/></defs><g id="Layer_2" data-name="Layer 2"><g id="Layer_1-2" data-name="Layer 1"><path class="cls-1" d="M43,673.51q7.55,7.74,19.16,7.74,11.42,0,18.48-7.65T87.66,653V573.27h35.41V653q0,17.61-7.45,30.87a50.34,50.34,0,0,1-21.28,20.41q-13.84,7.17-32.42,7.16t-32.6-7.16A51.33,51.33,0,0,1,7.64,683.86Q0,670.6,0,653V573.27H35.41V653Q35.41,665.77,43,673.51Z"/><path class="cls-1" d="M217.6,603.65q-12.28-4.06-20.61-4.07-6.57,0-10.35,2.42a7.9,7.9,0,0,0-3.77,7.07,9.65,9.65,0,0,0,3.29,7.45,25,25,0,0,0,8.13,4.83q4.83,1.85,14.32,4.75a184.59,184.59,0,0,1,23.31,8.12A40.85,40.85,0,0,1,247.7,646.7q6.57,8.43,6.57,22t-7.16,23.12a43.34,43.34,0,0,1-19.64,14.42,76.39,76.39,0,0,1-27.77,4.84,100.49,100.49,0,0,1-33.57-5.9A92,92,0,0,1,137.2,689l13.74-27.68a85.4,85.4,0,0,0,24.28,14.9q14,5.82,24.87,5.81,7.93,0,12.48-2.9a9.48,9.48,0,0,0,4.55-8.52,10.06,10.06,0,0,0-3.39-7.74,25,25,0,0,0-8.51-4.93q-5.13-1.84-14.42-4.36a177.5,177.5,0,0,1-23-7.83,40.84,40.84,0,0,1-15.57-12q-6.49-8-6.49-21.38a37.34,37.34,0,0,1,6.68-22.06q6.68-9.48,19-14.62t28.55-5.12a103.25,103.25,0,0,1,29,4.16,95.61,95.61,0,0,1,25.16,11.12L240.73,614.1A118.85,118.85,0,0,0,217.6,603.65Z"/><path class="cls-1" d="M368.35,581.78a62.39,62.39,0,0,1,25.45,23.9q9.09,15.39,9.09,35.31t-9.19,35.42a62.18,62.18,0,0,1-25.93,24q-16.74,8.52-38.41,8.52H272.27V573.27h58.44Q352,573.27,368.35,581.78Zm-18.48,93.66a32.82,32.82,0,0,0,12.38-13.74,44.76,44.76,0,0,0,4.45-20.32A43,43,0,0,0,362,620.87,34.66,34.66,0,0,0,348.9,607a36.47,36.47,0,0,0-19-4.93H307.68v78.18h24A34.21,34.21,0,0,0,349.87,675.44Z"/><path class="cls-1" d="M415.08,573.27h116.5v23.22l-71.6,84h72.76v28.45H412.57v-23l71.6-84.18H415.08Z"/><path class="cls-2" d="M0,266.14c.09,147.33,119.48,266.68,266.67,266.6A266.52,266.52,0,0,0,511.94,370c56.91-135.86-7-292.18-142.74-349.14C234-35.93,78.38,27.31,21,162.33A265.17,265.17,0,0,0,0,266.14Zm488.39,0c0,122.49-99.57,222.14-221.95,222.14S44.5,388.63,44.5,266.14,144.06,44,266.44,44s222,99.65,222,222.14Zm-314,98.24L72,266.37,174.76,168v50.72h98L175,314h-.27v.27l-.33.32Zm183.55.31V314H260.27L358,218.76V168l102.71,98.33Z"/></g></g></svg>