<svg xmlns="http://www.w3.org/2000/svg" viewBox="0 0 92.35 92.35"><defs><style>.cls-1{fill:#89dbc4;}.cls-2{fill:#ffd087;}.cls-3{fill:#7b413b;}.cls-4{fill:#fff;}.cls-5{fill:#7d3d42;}.cls-6{fill:#d53d2c;}.cls-7{fill:#f397b7;}</style></defs><g id="Layer_2" data-name="Layer 2"><g id="Layer_2-2" data-name="Layer 2"><circle class="cls-1" cx="46.17" cy="46.17" r="46.17"/><path class="cls-2" d="M78.38,39.15c0-9.21-14.42-16.68-32.21-16.68S14,29.94,14,39.15h0V57.54a8.64,8.64,0,0,0,.21,1.9c1.82,8.32,15.45,14.78,32,14.78s30.18-6.46,32-14.78a8.64,8.64,0,0,0,.21-1.9V39.16Z"/><path class="cls-3" d="M46.17,75.17c-16.83,0-31-6.67-32.92-15.52A10,10,0,0,1,13,57.54V39.15c0-9.72,14.87-17.63,33.15-17.63s33.16,7.91,33.16,17.63V57.54a10.1,10.1,0,0,1-.23,2.11C77.16,68.5,63,75.17,46.17,75.17Zm0-51.75c-17.23,0-31.25,7.06-31.25,15.73V57.54a8.13,8.13,0,0,0,.19,1.7c1.72,7.86,15.37,14,31.06,14s29.35-6.17,31.07-14a8.11,8.11,0,0,0,.18-1.7V39.15C77.42,30.48,63.41,23.42,46.17,23.42Z"/><path class="cls-4" d="M78.38,39.15q0,5.37.06,10.74c0,3,.45,6.46-2.69,8.17a1.41,1.41,0,0,1-.49.16c-2.67.26-3-4.57-6.24-2-1.78,1.41-2.34,3.92-3.58,5.72a10,10,0,0,1-4.66,3.91c-4.5,1.62-7.17-2.08-11-3.56a5.2,5.2,0,0,0-3.62-.2c-1.5.53-2.51,1.91-3.79,2.85-3.27,2.41-7.84,1.43-10.51-1.4-1.33-1.4-2.67-3-4.55-3.44-2.45-.59-4.89.72-7.35-.08a9.93,9.93,0,0,1-5.5-5.25c-.2-.41-.37-.83-.54-1.25V39.15c0-9.21,14.42-16.68,32.2-16.68S78.38,29.94,78.38,39.15Z"/><path class="cls-3" d="M77.74,39.15c0,4.21.08,8.41.1,12.62a7.61,7.61,0,0,1-.93,4.45c-.43.62-1.28,1.5-2.12,1.35a2.38,2.38,0,0,1-1.22-.82,6.39,6.39,0,0,0-2-1.77,2.89,2.89,0,0,0-2.83.68,9.91,9.91,0,0,0-2.62,3.76A13.3,13.3,0,0,1,63,63.82a6.45,6.45,0,0,1-5.48,1.67,13.44,13.44,0,0,1-4.29-2.12c-2.77-1.74-5.92-3.2-8.85-.92-1.41,1.1-2.51,2.44-4.3,3a7.49,7.49,0,0,1-5.26-.55c-3.09-1.52-4.54-5.24-8.27-5.54-2.12-.17-4.23.72-6.32.08a8.46,8.46,0,0,1-4.4-3.68,5.82,5.82,0,0,1-1.17-2.64c0-.67,0-1.37,0-2,0-3.85,0-7.69,0-11.54,0-4.53,3.17-7.92,6.79-10.25,5.89-3.79,13.12-5.42,20-6A56,56,0,0,1,64.22,26c4.94,1.76,10.84,4.79,12.9,10a8.85,8.85,0,0,1,.62,3.17.64.64,0,0,0,1.27,0c-.07-5.37-4.4-9.34-8.76-11.81C63.73,23.65,56,22.17,48.58,21.88a53.91,53.91,0,0,0-23.23,3.86c-4.83,2.08-10.29,5.56-11.7,11a16.24,16.24,0,0,0-.31,4.17v6.91c0,1.79-.13,3.64,0,5.44a6.8,6.8,0,0,0,1.15,2.8A11.12,11.12,0,0,0,18,59.77a8.17,8.17,0,0,0,5.67,1,11.11,11.11,0,0,1,3.15-.12A6,6,0,0,1,30,62.43c1.34,1.29,2.45,2.68,4.16,3.52a9.14,9.14,0,0,0,4.71,1,7.79,7.79,0,0,0,4.32-1.75C45,63.7,46.29,62,48.87,62.63c3.35.83,5.68,3.95,9.24,4.23s6.77-2.51,8.42-5.51c.9-1.63,1.48-3.67,3.07-4.8,1.26-.89,1.92-.14,2.78.79a3.88,3.88,0,0,0,2.55,1.52c1.3,0,2.51-1.09,3.16-2.13a8.38,8.38,0,0,0,1-4.32c0-2,0-4-.07-5.94q0-3.66,0-7.32A.64.64,0,0,0,77.74,39.15Z"/><path class="cls-4" d="M74.25,31c0-3.66-1.55-11.28-6.51-12.45-5.47-1.28-9.92,2.46-12,4.7a61.24,61.24,0,0,0-19.11,0c-2.1-2.24-6.55-6-12-4.7-5,1.17-6.54,8.79-6.5,12.45C15.47,33.39,14,36.18,14,39.15c0,9.21,14.42,16.67,32.2,16.67s32.21-7.46,32.21-16.67C78.38,36.18,76.88,33.39,74.25,31Z"/><path class="cls-3" d="M46.17,56.9c-18.66,0-33.28-7.8-33.28-17.75,0-3,1.43-6,4.14-8.65.09-3.42,1.52-11.66,7.33-13C30,16.15,34.57,19.59,37,22.06a63.25,63.25,0,0,1,18.33,0c2.44-2.46,7-5.91,12.65-4.59,5.26,1.24,7.25,8.45,7.33,13,2.71,2.62,4.13,5.6,4.13,8.65C79.45,49.1,64.84,56.9,46.17,56.9ZM26.85,19.34a8.71,8.71,0,0,0-2,.23c-4.33,1-5.71,8.25-5.67,11.39v.48l-.36.32c-2.47,2.28-3.78,4.83-3.78,7.39,0,8.6,14,15.6,31.12,15.6s31.13-7,31.13-15.6c0-2.56-1.31-5.11-3.78-7.39l-.36-.32V31c0-3.14-1.34-10.37-5.67-11.39-4.91-1.15-9,2.25-11,4.38l-.39.42-.57-.09a60.9,60.9,0,0,0-18.77,0l-.57.09L35.83,24C34.12,22.12,30.85,19.34,26.85,19.34Z"/><circle class="cls-5" cx="61.95" cy="37.57" r="2.89"/><path class="cls-6" d="M62,40.52a3,3,0,1,1,3-3A3,3,0,0,1,62,40.52Zm0-5.78a2.83,2.83,0,1,0,2.82,2.83A2.83,2.83,0,0,0,62,34.74Z"/><circle class="cls-5" cx="30.1" cy="37.57" r="2.89"/><path class="cls-6" d="M30.1,40.52a3,3,0,1,1,2.95-3A2.95,2.95,0,0,1,30.1,40.52Zm0-5.78a2.83,2.83,0,1,0,2.83,2.83A2.83,2.83,0,0,0,30.1,34.74Z"/><path class="cls-5" d="M42.65,44.62a3.33,3.33,0,0,1-3.47-2.2.58.58,0,0,1,.41-.71.59.59,0,0,1,.72.42c.32,1.23,2,1.47,3.13,1.25a2.43,2.43,0,0,0,2-2.26.6.6,0,0,1,.61-.55.58.58,0,0,1,.56.61,3.64,3.64,0,0,1-2.94,3.34A4.9,4.9,0,0,1,42.65,44.62Z"/><path class="cls-5" d="M49.39,44.62a5,5,0,0,1-1-.1,3.63,3.63,0,0,1-2.93-3.34.57.57,0,0,1,.55-.61.61.61,0,0,1,.62.55,2.43,2.43,0,0,0,2,2.26c1.08.21,2.82,0,3.14-1.25a.57.57,0,0,1,.71-.42.59.59,0,0,1,.42.71A3.34,3.34,0,0,1,49.39,44.62Z"/><path class="cls-5" d="M71.74,39.65a.58.58,0,0,1-.1-1.15l3.45-.62a.59.59,0,0,1,.68.47.6.6,0,0,1-.48.68l-3.44.61Z"/><path class="cls-5" d="M75.08,43.24l-.18,0-3.34-1.08A.58.58,0,0,1,71.92,41l3.34,1.08a.59.59,0,0,1-.18,1.14Z"/><path class="cls-5" d="M20.43,39.65h-.11L16.88,39a.6.6,0,0,1-.48-.68.58.58,0,0,1,.68-.47l3.45.62a.57.57,0,0,1,.47.67A.58.58,0,0,1,20.43,39.65Z"/><path class="cls-5" d="M17.09,43.24a.59.59,0,0,1-.18-1.14L20.25,41a.58.58,0,0,1,.36,1.11l-3.34,1.08Z"/><ellipse class="cls-7" cx="65.13" cy="42.33" rx="2.95" ry="1.56"/><ellipse class="cls-7" cx="27.07" cy="42.33" rx="2.95" ry="1.56"/></g></g></svg>