<svg xmlns="http://www.w3.org/2000/svg" viewBox="0 0 477.4 621.71"><defs><style>.cls-1{fill:#fff;}</style></defs><g id="Layer_2" data-name="Layer 2"><g id="Layer_1-2" data-name="Layer 1"><path class="cls-1" d="M462.82,297.69h-.18c-12.77-38-33.71-77-63.78-119.1-6.07-8.49-12.48-17-19-25.33-36.61-47-79.11-91-115.81-127.88-2.12-2.15-4.27-4.3-6.39-6.42l-19-19-19,19c-2.12,2.12-4.26,4.26-6.33,6.35-36.74,36.91-79.24,81-115.82,127.88-6.53,8.31-12.93,16.85-19,25.39-30.07,42.05-51,81.12-63.77,119.09h-.21l-3,10A262.68,262.68,0,0,0,0,383,238.59,238.59,0,0,0,28.65,496.35,239.37,239.37,0,0,0,222.31,621.14c5.27.38,10.79.57,16.39.57s11.11-.19,16.33-.56a238.31,238.31,0,0,0,175.71-96.49,235.7,235.7,0,0,0,18-28.28A238.7,238.7,0,0,0,477.4,383a262.68,262.68,0,0,0-11.56-75.35ZM209.32,540.37A20.21,20.21,0,0,1,183,559.62,184.87,184.87,0,0,1,53.61,383c0-18.89,3.26-39,9.65-59.61.32-1,.63-2,1-3l.36-1.14C74,290.43,89.27,260.32,111,227.59l79.6,79.6a64,64,0,0,1,18.75,45.25ZM238.7,272.19l-63.32-63.31A45.47,45.47,0,0,1,173,147c17.65-20.4,37.64-42.06,60.34-65.38l5.34-5.49,5.36,5.52c22.69,23.31,42.68,45,60.31,65.35A45.46,45.46,0,0,1,302,208.88ZM404.91,464.63a185.16,185.16,0,0,1-110.55,95,20.21,20.21,0,0,1-26.28-19.25V352.44a64,64,0,0,1,18.74-45.25l79.6-79.6c21.7,32.73,36.92,62.81,46.31,91.41l.28.84,1.1,3.48c6.41,20.71,9.67,40.8,9.67,59.69A183.78,183.78,0,0,1,404.91,464.63Z"/></g></g></svg>