<svg xmlns="http://www.w3.org/2000/svg" viewBox="0 0 1150.44 257.88"><defs><style>.cls-1{font-size:164.56px;font-family:Roboto-Regular, Roboto;}.cls-1,.cls-7{fill:#fff;}.cls-2{font-family:Roboto-Medium, Roboto;font-weight:500;letter-spacing:0em;}.cls-3,.cls-4,.cls-5,.cls-6{font-family:Roboto-Bold, Roboto;font-weight:700;}.cls-3{letter-spacing:-0.1em;}.cls-5{letter-spacing:-0.01em;}.cls-6{letter-spacing:0em;}</style></defs><g id="Layer_2" data-name="Layer 2"><g id="Layer_1-2" data-name="Layer 1"><text class="cls-1" transform="translate(0 213.29)">zSeed<tspan class="cls-2" x="446.35" y="0"> </tspan><tspan class="cls-3" x="487.33" y="0">T</tspan><tspan class="cls-4" x="572.42" y="0">o</tspan><tspan class="cls-5" x="665.46" y="0">k</tspan><tspan class="cls-6" x="751.76" y="0">en</tspan></text><path class="cls-7" d="M1144.9,113.27h-.07C1140,98.82,1132,84,1120.56,68c-2.31-3.23-4.75-6.48-7.23-9.64-13.93-17.87-30.1-34.63-44.06-48.65l-2.43-2.45L1059.62,0l-7.22,7.22L1050,9.64c-14,14-30.15,30.8-44.06,48.66-2.49,3.16-4.93,6.41-7.25,9.65-11.44,16-19.4,30.87-24.26,45.32h-.08l-1.14,3.79a99.89,99.89,0,0,0-4.4,28.67,90.82,90.82,0,0,0,10.9,43.13,89.62,89.62,0,0,0,6.85,10.76,90.67,90.67,0,0,0,66.84,36.72c2,.14,4.1.21,6.23.21s4.23-.07,6.22-.21a90.82,90.82,0,0,0,84.6-90.61,100.22,100.22,0,0,0-4.39-28.67Zm-96.46,92.33a7.69,7.69,0,0,1-10,7.33,70.36,70.36,0,0,1-49.24-67.2,77.06,77.06,0,0,1,3.67-22.68c.12-.38.24-.76.37-1.15l.14-.43c3.59-11,9.39-22.42,17.64-34.88l30.29,30.29a24.34,24.34,0,0,1,7.13,17.22Zm11.18-102-24.09-24.09a17.32,17.32,0,0,1-.9-23.54c6.72-7.76,14.32-16,23-24.87.68-.7,1.35-1.4,2-2.09l2,2.1c8.64,8.87,16.24,17.1,22.95,24.86a17.31,17.31,0,0,1-.9,23.54Zm63.24,73.22a70.38,70.38,0,0,1-42.06,36.14,7.69,7.69,0,0,1-10-7.32V134.1a24.38,24.38,0,0,1,7.13-17.22l30.29-30.29c8.26,12.46,14,23.9,17.62,34.78l.11.32.41,1.33a77.11,77.11,0,0,1,3.68,22.71A69.87,69.87,0,0,1,1122.86,176.79Z"/></g></g></svg>