<svg xmlns="http://www.w3.org/2000/svg" xmlns:xlink="http://www.w3.org/1999/xlink" viewBox="0 0 425.7 304.09"><defs><style>.cls-1{fill:url(#Turquoise);}.cls-2{fill:url(#Turquoise-11);}</style><linearGradient id="Turquoise" y1="274.74" x2="425.7" y2="274.74" gradientUnits="userSpaceOnUse"><stop offset="0.01" stop-color="#3eb0ca"/><stop offset="0.5" stop-color="#0099b9"/><stop offset="0.99" stop-color="#007c84"/></linearGradient><linearGradient id="Turquoise-11" x1="128.21" y1="111.09" x2="298.81" y2="111.09" xlink:href="#Turquoise"/></defs><g id="Layer_2" data-name="Layer 2"><g id="Layer_1-2" data-name="Layer 1"><path class="cls-1" d="M8.53,297.64H32.41v5.7H0v-5.13l22.53-29.93H.34v-5.77H31.28v4.94Z"/><path class="cls-1" d="M57.54,278.85q-9.32-2.69-13.56-6.58a12.6,12.6,0,0,1-4.25-9.65,13.29,13.29,0,0,1,5.19-10.73q5.19-4.24,13.49-4.25a22.47,22.47,0,0,1,10.09,2.19,16.55,16.55,0,0,1,6.87,6,15.47,15.47,0,0,1,2.44,8.41H70.52a10,10,0,0,0-3.17-7.85q-3.16-2.87-8.94-2.86-5.35,0-8.36,2.36a7.89,7.89,0,0,0-3,6.56,7.1,7.1,0,0,0,2.85,5.69q2.85,2.32,9.7,4.25a45.05,45.05,0,0,1,10.72,4.25,16.31,16.31,0,0,1,5.73,5.41,13.8,13.8,0,0,1,1.87,7.29,12.82,12.82,0,0,1-5.21,10.69q-5.2,4-13.92,4a25.76,25.76,0,0,1-10.57-2.17A17.66,17.66,0,0,1,40.66,296,14.47,14.47,0,0,1,38,287.41h7.28A9.46,9.46,0,0,0,49,295.28q3.67,2.89,9.83,2.89,5.73,0,8.79-2.34a7.6,7.6,0,0,0,3.06-6.38,7.47,7.47,0,0,0-2.83-6.24Q65,281,57.54,278.85Z"/><path class="cls-1" d="M103.05,304.09a17.81,17.81,0,0,1-13.51-5.45q-5.21-5.44-5.21-14.58v-1.29a24.55,24.55,0,0,1,2.32-10.84,18.11,18.11,0,0,1,6.49-7.48,16.4,16.4,0,0,1,9-2.69q8,0,12.38,5.24T119,282v2.9H91.31a14.53,14.53,0,0,0,3.53,9.76,11.08,11.08,0,0,0,8.59,3.72,12.22,12.22,0,0,0,6.26-1.51,15.77,15.77,0,0,0,4.49-4l4.26,3.32Q113.31,304.08,103.05,304.09Zm-.87-36.6a9.3,9.3,0,0,0-7.09,3.08,14.86,14.86,0,0,0-3.55,8.62H112v-.53c-.2-3.55-1.16-6.29-2.87-8.24A8.76,8.76,0,0,0,102.18,267.49Z"/><path class="cls-1" d="M144,304.09a17.81,17.81,0,0,1-13.51-5.45q-5.2-5.44-5.21-14.58v-1.29a24.55,24.55,0,0,1,2.32-10.84,18.11,18.11,0,0,1,6.49-7.48,16.4,16.4,0,0,1,9-2.69q8,0,12.38,5.24t4.41,15v2.9H132.25a14.53,14.53,0,0,0,3.53,9.76,11.08,11.08,0,0,0,8.59,3.72,12.22,12.22,0,0,0,6.26-1.51,15.77,15.77,0,0,0,4.49-4l4.26,3.32Q154.25,304.08,144,304.09Zm-.87-36.6a9.3,9.3,0,0,0-7.09,3.08,14.93,14.93,0,0,0-3.55,8.62h20.45v-.53c-.2-3.55-1.16-6.29-2.87-8.24A8.76,8.76,0,0,0,143.12,267.49Z"/><path class="cls-1" d="M166.29,282.59q0-9.4,4.45-15.12a15.16,15.16,0,0,1,23-.81V245.38h7v58h-6.42L194,299q-4.18,5.13-11.65,5.13a13.93,13.93,0,0,1-11.57-5.81q-4.47-5.8-4.47-15.17Zm7,.79q0,6.94,2.87,10.86a9.26,9.26,0,0,0,7.92,3.93,10.19,10.19,0,0,0,9.7-6V273.45a10.28,10.28,0,0,0-9.62-5.77,9.3,9.3,0,0,0-8,4Q173.26,275.6,173.27,283.38Z"/><path class="cls-1" d="M268.54,256.1H251.41v47.24h-9.47V256.1H225v-7.7h43.58Z"/><path class="cls-1" d="M265.3,282.55a24,24,0,0,1,2.38-10.81,17.34,17.34,0,0,1,6.67-7.4,18.87,18.87,0,0,1,9.89-2.58q8.26,0,13.41,5.32t5.57,14.11l0,2.15a24.39,24.39,0,0,1-2.32,10.79,17.2,17.2,0,0,1-6.64,7.36,19,19,0,0,1-10,2.6q-8.65,0-13.83-5.75T265.3,283Zm9.17.79q0,6.3,2.6,9.87a8.48,8.48,0,0,0,7.25,3.56,8.35,8.35,0,0,0,7.22-3.62q2.58-3.61,2.59-10.6,0-6.19-2.66-9.81a8.51,8.51,0,0,0-7.23-3.63,8.41,8.41,0,0,0-7.13,3.57Q274.47,276.25,274.47,283.34Z"/><path class="cls-1" d="M324.28,285.83,320.2,290v13.32H311v-58h9.17v33.43l2.87-3.58,11.28-12.72h11l-15.17,17L347,303.34h-10.6Z"/><path class="cls-1" d="M368.57,304.09q-8.71,0-14.13-5.49T349,284v-1.13a24.34,24.34,0,0,1,2.36-10.92,17.89,17.89,0,0,1,6.62-7.49,17.46,17.46,0,0,1,9.51-2.68q8.34,0,12.88,5.32T385,282.13v3.7H358.27a12.25,12.25,0,0,0,3.38,8,10.14,10.14,0,0,0,7.45,2.94,12.42,12.42,0,0,0,10.26-5.09l4.95,4.72a16.48,16.48,0,0,1-6.55,5.67A20.44,20.44,0,0,1,368.57,304.09Zm-1.09-35a7.74,7.74,0,0,0-6.1,2.65,13.75,13.75,0,0,0-3,7.35h17.47v-.68q-.3-4.59-2.45-7A7.66,7.66,0,0,0,367.48,269.11Z"/><path class="cls-1" d="M400.57,262.51l.26,4.72a14.69,14.69,0,0,1,11.89-5.47q12.75,0,13,14.6v27h-9.17V276.89q0-3.88-1.68-5.76t-5.49-1.86a8.84,8.84,0,0,0-8.26,5v29.06h-9.17V262.51Z"/><path class="cls-2" d="M293.6,106.38h-.06C289,92.81,281.49,78.85,270.75,63.82c-2.17-3-4.46-6.09-6.8-9C250.87,38,235.68,22.24,222.57,9.07l-2.28-2.29L213.51,0l-6.78,6.78-2.26,2.27C191.34,22.24,176.15,38,163.08,54.75c-2.33,3-4.62,6-6.81,9.07-10.74,15-18.22,29-22.78,42.56h-.08l-1.07,3.56a94,94,0,0,0-4.13,26.93,85.19,85.19,0,0,0,10.24,40.5,83.29,83.29,0,0,0,6.43,10.11A85.13,85.13,0,0,0,207.66,222c1.88.13,3.85.2,5.85.2s4-.07,5.84-.2a85.32,85.32,0,0,0,79.46-85.1,94,94,0,0,0-4.13-26.93ZM203,193.1a7.22,7.22,0,0,1-9.39,6.88A65.93,65.93,0,0,1,159.5,175.1a64.46,64.46,0,0,1-5.39-9.07,65.7,65.7,0,0,1-6.74-29.16,72.13,72.13,0,0,1,3.45-21.3c.11-.36.22-.71.35-1.08l.12-.41c3.38-10.29,8.82-21,16.58-32.75l28.44,28.45a22.83,22.83,0,0,1,6.7,16.16Zm10.5-95.83L190.88,74.64a16.25,16.25,0,0,1-.84-22.1c6.31-7.29,13.45-15,21.56-23.36l1.91-2,1.92,2c8.11,8.33,15.25,16.06,21.55,23.35a16.25,16.25,0,0,1-.84,22.1ZM272.91,166A66.24,66.24,0,0,1,233.4,200a7.22,7.22,0,0,1-9.39-6.87V125.94a22.83,22.83,0,0,1,6.7-16.16l28.44-28.45c7.76,11.7,13.2,22.44,16.55,32.67l.1.3.39,1.24a72.17,72.17,0,0,1,3.46,21.33A65.77,65.77,0,0,1,272.91,166Z"/></g></g></svg>