<svg xmlns="http://www.w3.org/2000/svg" viewBox="0 0 438.08 324.28"><defs><style>.cls-1{font-size:77.28px;font-family:Roboto-Regular, Roboto;}.cls-1,.cls-7{fill:#fff;}.cls-2{font-family:Roboto-Medium, Roboto;font-weight:500;}.cls-3,.cls-4,.cls-5,.cls-6{font-family:Roboto-Bold, Roboto;font-weight:700;}.cls-3{letter-spacing:-0.1em;}.cls-5{letter-spacing:-0.01em;}.cls-6{letter-spacing:0em;}</style></defs><g id="Layer_2" data-name="Layer 2"><g id="Layer_1-2" data-name="Layer 1"><text class="cls-1" transform="translate(0 303.34)">zSeed<tspan class="cls-2" x="209.61" y="0"> </tspan><tspan class="cls-3" x="228.85" y="0">T</tspan><tspan class="cls-4" x="268.81" y="0">o</tspan><tspan class="cls-5" x="312.5" y="0">k</tspan><tspan class="cls-6" x="353.03" y="0">en</tspan></text><path class="cls-7" d="M299.13,106.38h-.07c-4.56-13.57-12-27.53-22.79-42.56-2.17-3-4.46-6.09-6.79-9C256.4,38,241.21,22.24,228.1,9.07c-.76-.77-1.53-1.54-2.29-2.29L219,0l-6.78,6.78L210,9.05C196.86,22.24,181.68,38,168.61,54.75c-2.34,3-4.63,6-6.81,9.07-10.74,15-18.22,29-22.79,42.56h-.07l-1.07,3.56a94,94,0,0,0-4.13,26.93A85.19,85.19,0,0,0,144,177.37a83.29,83.29,0,0,0,6.43,10.11A85.12,85.12,0,0,0,213.18,222c1.89.13,3.86.2,5.86.2s4-.07,5.84-.2a85.35,85.35,0,0,0,79.46-85.1,94,94,0,0,0-4.13-26.93ZM208.54,193.1a7.22,7.22,0,0,1-9.39,6.88A65.93,65.93,0,0,1,165,175.1a64.46,64.46,0,0,1-5.39-9.07,65.7,65.7,0,0,1-6.74-29.16,72.13,72.13,0,0,1,3.45-21.3c.11-.36.22-.71.34-1.08l.13-.41c3.38-10.29,8.82-21,16.58-32.75l28.44,28.45a22.83,22.83,0,0,1,6.7,16.16ZM219,97.27,196.41,74.64a16.25,16.25,0,0,1-.84-22.1c6.3-7.29,13.45-15,21.56-23.36l1.91-2,1.92,2c8.1,8.33,15.25,16.06,21.55,23.35a16.24,16.24,0,0,1-.85,22.1ZM278.43,166A66.1,66.1,0,0,1,238.93,200a7.22,7.22,0,0,1-9.39-6.87V125.94a22.83,22.83,0,0,1,6.7-16.16l28.44-28.45c7.76,11.7,13.2,22.44,16.55,32.67l.1.3.39,1.24a72.5,72.5,0,0,1,3.46,21.33A65.65,65.65,0,0,1,278.43,166Z"/></g></g></svg>