<svg xmlns="http://www.w3.org/2000/svg" xmlns:xlink="http://www.w3.org/1999/xlink" viewBox="0 0 1143.37 236.55"><defs><style>.cls-1{fill:url(#Turquoise);}.cls-2{fill:url(#Turquoise-11);}</style><linearGradient id="Turquoise" y1="152.38" x2="917.12" y2="152.38" gradientUnits="userSpaceOnUse"><stop offset="0.01" stop-color="#3eb0ca"/><stop offset="0.5" stop-color="#0099b9"/><stop offset="0.99" stop-color="#007c84"/></linearGradient><linearGradient id="Turquoise-11" x1="961.73" y1="118.28" x2="1143.37" y2="118.28" xlink:href="#Turquoise"/></defs><g id="Layer_2" data-name="Layer 2"><g id="Layer_1-2" data-name="Layer 1"><path class="cls-1" d="M18.16,201.16H69v12.13H0V202.36l48-63.72H.72V126.35H66.61v10.53Z"/><path class="cls-1" d="M122.53,161.14q-19.84-5.7-28.88-14a26.78,26.78,0,0,1-9-20.53q0-13.82,11-22.86t28.72-9a48.05,48.05,0,0,1,21.5,4.66,35.37,35.37,0,0,1,14.62,12.86,32.83,32.83,0,0,1,5.18,17.92H150.17q0-10.65-6.75-16.74t-19-6.08q-11.4,0-17.8,5t-6.38,14q0,7.17,6.06,12.12t20.65,9.05q14.6,4.11,22.82,9.05A34.8,34.8,0,0,1,162,168.05a29.43,29.43,0,0,1,4,15.51q0,14.22-11.09,22.78t-29.64,8.56a55,55,0,0,1-22.5-4.62,37.77,37.77,0,0,1-16.11-12.66,30.88,30.88,0,0,1-5.67-18.24H96.42q0,10.6,7.83,16.75t20.94,6.15q12.21,0,18.72-5a16.18,16.18,0,0,0,6.51-13.58q0-8.59-6-13.3T122.53,161.14Z"/><path class="cls-1" d="M219.44,214.9q-17.69,0-28.77-11.62t-11.09-31.05V169.5a52.19,52.19,0,0,1,4.94-23.1,38.56,38.56,0,0,1,13.82-15.91,34.77,34.77,0,0,1,19.25-5.75q16.95,0,26.35,11.17t9.4,32v6.19H194.45q.31,12.85,7.51,20.77a23.63,23.63,0,0,0,18.28,7.91,25.92,25.92,0,0,0,13.34-3.21,33.42,33.42,0,0,0,9.56-8.52l9.08,7.07Q241.29,214.9,219.44,214.9ZM217.59,137a19.85,19.85,0,0,0-15.11,6.54q-6.1,6.56-7.55,18.36h43.55v-1.12q-.64-11.33-6.11-17.56T217.59,137Z"/><path class="cls-1" d="M306.62,214.9q-17.69,0-28.77-11.62t-11.09-31.05V169.5a52.06,52.06,0,0,1,4.95-23.1,38.49,38.49,0,0,1,13.82-15.91,34.72,34.72,0,0,1,19.24-5.75q17,0,26.35,11.17t9.41,32v6.19h-58.9q.31,12.85,7.51,20.77a23.63,23.63,0,0,0,18.28,7.91,25.92,25.92,0,0,0,13.34-3.21,33.42,33.42,0,0,0,9.56-8.52l9.08,7.07Q328.48,214.9,306.62,214.9ZM304.77,137a19.85,19.85,0,0,0-15.11,6.54q-6.11,6.56-7.55,18.36h43.55v-1.12q-.65-11.33-6.11-17.56T304.77,137Z"/><path class="cls-1" d="M354.1,169.1q0-20,9.48-32.18a30,30,0,0,1,24.83-12.18q15.27,0,24.19,10.45V89.87h14.86V213.29H413.8l-.72-9.32q-8.91,10.92-24.83,10.93-15.11,0-24.62-12.38t-9.53-32.3ZM369,170.78q0,14.79,6.11,23.14T392,202.28q14.15,0,20.65-12.69V149.65q-6.68-12.28-20.49-12.29-10.94,0-17,8.43T369,170.78Z"/><path class="cls-1" d="M578.76,115.82H542.93v97.47H518.82V115.82H483.47V96.3h95.29Z"/><path class="cls-1" d="M570.65,169a51.6,51.6,0,0,1,5-23.07A36.46,36.46,0,0,1,590,130.29a41.83,41.83,0,0,1,21.74-5.55q17.6,0,28.72,10.77t12.42,29.25l.16,5.94q0,20-11.17,32.1t-30,12.1q-18.81,0-30-12.06t-11.21-32.78Zm23.22,1.64q0,12.41,4.66,19t13.34,6.55a15.45,15.45,0,0,0,13.18-6.47q4.74-6.48,4.74-20.73,0-12.15-4.74-18.83a15.43,15.43,0,0,0-13.34-6.68,15.18,15.18,0,0,0-13.18,6.64Q593.87,156.75,593.87,170.66Z"/><path class="cls-1" d="M698.89,178.42l-8.36,8.35v26.52H667.31V89.87h23.22v68.38l4.5-5.79,22.26-26.11h27.88l-31.42,36.24,34.15,50.7H721.23Z"/><path class="cls-1" d="M793.62,214.9q-19.12,0-31.13-11.74t-12-31.25v-2.25a52.43,52.43,0,0,1,5.07-23.42,37,37,0,0,1,14.34-15.91,40.19,40.19,0,0,1,21.17-5.59q17.84,0,28.08,11.25t10.25,31.9v9.48H774A21.56,21.56,0,0,0,780.81,191q5.66,5.15,14.34,5.14,13.41,0,21-9.72l11.41,12.78a34.88,34.88,0,0,1-14.14,11.53A46.41,46.41,0,0,1,793.62,214.9ZM791,143.46a14.52,14.52,0,0,0-11.21,4.69q-4.29,4.68-5.5,13.39h32.3v-1.85q-.16-7.75-4.18-12T791,143.46Z"/><path class="cls-1" d="M863.93,126.35l.72,10q9.32-11.64,25-11.65,13.82,0,20.57,8.12t6.91,24.26v56.17H893.9v-55.6q0-7.4-3.22-10.73T880,143.62A16,16,0,0,0,865.29,152v61.31H842.07V126.35Z"/><path class="cls-2" d="M1137.83,113.27h-.07C1132.9,98.82,1124.93,84,1113.49,68c-2.31-3.23-4.75-6.48-7.23-9.64-13.93-17.87-30.1-34.63-44.06-48.65l-2.44-2.45L1052.55,0l-7.22,7.22-2.41,2.42c-14,14-30.15,30.8-44.07,48.66-2.48,3.16-4.92,6.41-7.24,9.65-11.44,16-19.41,30.87-24.26,45.32h-.08l-1.14,3.79a99.89,99.89,0,0,0-4.4,28.67,90.82,90.82,0,0,0,10.9,43.13,88.39,88.39,0,0,0,6.85,10.76,90.67,90.67,0,0,0,66.84,36.72c2,.14,4.1.21,6.23.21s4.23-.07,6.22-.21a90.82,90.82,0,0,0,84.6-90.61,99.89,99.89,0,0,0-4.4-28.67Zm-96.46,92.33a7.69,7.69,0,0,1-10,7.33,70.32,70.32,0,0,1-49.24-67.2,77.06,77.06,0,0,1,3.67-22.68c.12-.38.24-.76.37-1.15l.13-.43c3.6-11,9.4-22.42,17.65-34.88l30.29,30.29a24.34,24.34,0,0,1,7.13,17.22Zm11.18-102-24.09-24.09a17.32,17.32,0,0,1-.9-23.54c6.72-7.76,14.32-16,23-24.87.68-.7,1.35-1.4,2-2.09l2,2.1c8.63,8.87,16.24,17.1,23,24.86a17.31,17.31,0,0,1-.9,23.54Zm63.24,73.22a70.38,70.38,0,0,1-42.06,36.14,7.69,7.69,0,0,1-10-7.32V134.1a24.38,24.38,0,0,1,7.13-17.22l30.29-30.29c8.26,12.46,14,23.9,17.62,34.78l.11.32.41,1.33a77.11,77.11,0,0,1,3.68,22.71A69.87,69.87,0,0,1,1115.79,176.79Z"/></g></g></svg>