<svg xmlns="http://www.w3.org/2000/svg" xmlns:xlink="http://www.w3.org/1999/xlink" viewBox="0 0 506.1 506.1"><defs><style>.cls-1{fill:url(#Turquoise);}.cls-2{fill:#fff;}</style><linearGradient id="Turquoise" x1="2.82" y1="2.82" x2="430.7" y2="430.7" gradientUnits="userSpaceOnUse"><stop offset="0.01" stop-color="#3eb0ca"/><stop offset="0.5" stop-color="#0099b9"/><stop offset="0.99" stop-color="#007c84"/></linearGradient></defs><g id="Layer_2" data-name="Layer 2"><g id="Layer_1-2" data-name="Layer 1"><polygon class="cls-1" points="506.1 506.1 0 506.1 0 506.1 0 0 506.1 0 506.1 506.1"/><path class="cls-2" d="M47.5,400.53H74v3.81H41.92V401l24.75-33.58h-24v-3.92h29.7v3.39Z"/><path class="cls-2" d="M114.25,390.83a8.9,8.9,0,0,0-3.2-7.22q-3.21-2.66-11.74-5.06c-5.68-1.59-9.84-3.34-12.45-5.22a12.68,12.68,0,0,1-.4-20.74q5.19-3.94,13.27-3.94a22,22,0,0,1,9.79,2.11,16,16,0,0,1,6.69,5.89,15.4,15.4,0,0,1,2.38,8.41h-4.68a11.52,11.52,0,0,0-3.85-9.06q-3.84-3.42-10.33-3.43-6.32,0-10,2.82A8.8,8.8,0,0,0,86,362.74a8.3,8.3,0,0,0,3.36,6.84q3.36,2.64,10.75,4.67a50.51,50.51,0,0,1,11.21,4.19,16,16,0,0,1,5.74,5.19,13,13,0,0,1,1.92,7.13,12.4,12.4,0,0,1-5.19,10.41c-3.46,2.62-8,3.93-13.68,3.93A26.92,26.92,0,0,1,89.4,403a16.23,16.23,0,0,1-7.35-5.81,14.93,14.93,0,0,1-2.51-8.56h4.64a11,11,0,0,0,4.34,9.17q4.33,3.35,11.54,3.35,6.42,0,10.31-2.83A8.84,8.84,0,0,0,114.25,390.83Z"/><path class="cls-2" d="M143.68,405.1a17.71,17.71,0,0,1-9.41-2.57,17.43,17.43,0,0,1-6.55-7.15,22.29,22.29,0,0,1-2.34-10.28v-1.62a24,24,0,0,1,2.29-10.61,18.21,18.21,0,0,1,6.35-7.41,15.68,15.68,0,0,1,8.83-2.7q7.44,0,11.8,5.08T159,381.7v2.53H129.87v.87a17.1,17.1,0,0,0,4,11.56,12.66,12.66,0,0,0,10,4.63,14.73,14.73,0,0,0,6.4-1.32,14.17,14.17,0,0,0,5-4.23l2.83,2.15Q153.15,405.09,143.68,405.1Zm-.83-38.49a11.3,11.3,0,0,0-8.58,3.74,17.27,17.27,0,0,0-4.25,10h24.49v-.49a14.9,14.9,0,0,0-3.36-9.58A10.39,10.39,0,0,0,142.85,366.61Z"/><path class="cls-2" d="M183.6,405.1a17.71,17.71,0,0,1-9.41-2.57,17.5,17.5,0,0,1-6.55-7.15,22.28,22.28,0,0,1-2.33-10.28v-1.62a23.94,23.94,0,0,1,2.28-10.61,18.15,18.15,0,0,1,6.36-7.41,15.65,15.65,0,0,1,8.82-2.7q7.44,0,11.8,5.08t4.35,13.86v2.53H169.8v.87a17,17,0,0,0,4,11.56,12.63,12.63,0,0,0,10,4.63,14.73,14.73,0,0,0,6.4-1.32,14.17,14.17,0,0,0,5-4.23l2.83,2.15Q193.08,405.09,183.6,405.1Zm-.83-38.49a11.3,11.3,0,0,0-8.58,3.74,17.19,17.19,0,0,0-4.24,10h24.48v-.49a15,15,0,0,0-3.35-9.58A10.41,10.41,0,0,0,182.77,366.61Z"/><path class="cls-2" d="M205.9,383.55q0-9.51,4.25-15.15a13.66,13.66,0,0,1,11.53-5.64q8.26,0,12.6,6.53v-22.9h4.49v57.95h-4.23l-.18-5.43q-4.35,6.18-12.76,6.19a13.62,13.62,0,0,1-11.37-5.68q-4.33-5.69-4.33-15.34Zm4.57.79q0,7.82,3.13,12.32a10.12,10.12,0,0,0,8.83,4.51q8.34,0,11.85-7.35V374.65q-3.51-8-11.77-8a10.25,10.25,0,0,0-8.87,4.47Q210.48,375.63,210.47,384.34Z"/><path class="cls-2" d="M307,357.1H289.9v47.24h-9.47V357.1h-17v-7.7H307Z"/><path class="cls-2" d="M303.78,383.55a24.14,24.14,0,0,1,2.38-10.81,17.27,17.27,0,0,1,6.68-7.39,18.76,18.76,0,0,1,9.89-2.59q8.25,0,13.41,5.32t5.57,14.11l0,2.15a24.27,24.27,0,0,1-2.32,10.8,17.05,17.05,0,0,1-6.64,7.35,18.93,18.93,0,0,1-10,2.61q-8.64,0-13.83-5.76T303.78,384Zm9.17.79c0,4.21.87,7.49,2.61,9.87a9.07,9.07,0,0,0,14.47-.06q2.58-3.61,2.58-10.6,0-6.18-2.66-9.81a9,9,0,0,0-14.36-.05C313.83,376.06,313,379.62,313,384.34Z"/><path class="cls-2" d="M362.76,386.83,358.68,391v13.32h-9.16V346.39h9.16v33.43l2.87-3.59,11.28-12.71h11l-15.17,17,16.8,23.81H374.87Z"/><path class="cls-2" d="M407.06,405.1q-8.71,0-14.13-5.49T387.51,385v-1.14a24.54,24.54,0,0,1,2.36-10.92,18,18,0,0,1,6.62-7.49,17.46,17.46,0,0,1,9.51-2.68q8.34,0,12.89,5.32t4.54,15.06v3.69H396.76a12.22,12.22,0,0,0,3.37,8,10.13,10.13,0,0,0,7.46,2.95,12.4,12.4,0,0,0,10.26-5.1l4.94,4.72a16.48,16.48,0,0,1-6.54,5.68A20.6,20.6,0,0,1,407.06,405.1Zm-1.1-35a7.73,7.73,0,0,0-6.09,2.64,13.67,13.67,0,0,0-3,7.36h17.47v-.68q-.3-4.6-2.45-7A7.7,7.7,0,0,0,406,370.12Z"/><path class="cls-2" d="M439.06,363.52l.26,4.71a14.7,14.7,0,0,1,11.89-5.47q12.75,0,13,14.6v27H455V377.89q0-3.88-1.68-5.75t-5.49-1.87a8.85,8.85,0,0,0-8.27,5v29h-9.17V363.52Z"/><path class="cls-2" d="M333.82,207.39h-.06c-4.57-13.57-12.05-27.54-22.79-42.56-2.17-3-4.46-6.09-6.8-9.06-13.08-16.78-28.26-32.52-41.38-45.7l-2.28-2.29L253.73,101,247,107.79c-.76.75-1.52,1.52-2.26,2.27-13.13,13.19-28.32,28.93-41.39,45.7-2.33,3-4.62,6-6.81,9.07-10.74,15-18.22,29-22.78,42.56h-.08L172.56,211a93.85,93.85,0,0,0-4.13,26.93,85.25,85.25,0,0,0,10.24,40.5,84.08,84.08,0,0,0,6.43,10.11A85.15,85.15,0,0,0,247.88,323c1.88.14,3.85.21,5.85.21s4-.07,5.84-.21A85.3,85.3,0,0,0,339,237.88,93.85,93.85,0,0,0,334.9,211Zm-90.59,86.72a7.22,7.22,0,0,1-9.39,6.88,66,66,0,0,1-34.12-24.88,66.05,66.05,0,0,1-12.13-38.23A72.24,72.24,0,0,1,191,216.57c.11-.35.22-.71.35-1.07l.12-.41c3.38-10.3,8.82-21.06,16.58-32.76l28.44,28.45a22.86,22.86,0,0,1,6.7,16.17Zm10.5-95.84-22.62-22.62a16.24,16.24,0,0,1-.85-22.1c6.31-7.29,13.45-15,21.56-23.37l1.91-2,1.92,2c8.11,8.33,15.25,16.07,21.55,23.36a16.25,16.25,0,0,1-.84,22.1ZM313.13,267A66.17,66.17,0,0,1,273.62,301a7.22,7.22,0,0,1-9.39-6.88V227a22.86,22.86,0,0,1,6.7-16.17l28.44-28.45c7.76,11.7,13.2,22.45,16.55,32.67l.1.3.39,1.25a72.12,72.12,0,0,1,3.46,21.33A65.7,65.7,0,0,1,313.13,267Z"/></g></g></svg>